<svg width="220" height="220" viewBox="0 0 220 220" fill="none" xmlns="http://www.w3.org/2000/svg">
<rect width="220" height="220" rx="64" fill="#080F1E"/>
<g clip-path="url(#clip0_95_295)">
<path d="M170 50H50V170H170V50Z" fill="#FDD231"/>
<path d="M130.61 143.75C133.027 147.697 136.171 150.598 141.733 150.598C146.406 150.598 149.39 148.263 149.39 145.036C149.39 141.17 146.324 139.8 141.181 137.55L138.362 136.341C130.225 132.874 124.819 128.531 124.819 119.35C124.819 110.893 131.263 104.455 141.333 104.455C148.503 104.455 153.657 106.95 157.371 113.484L148.59 119.122C146.657 115.655 144.571 114.29 141.333 114.29C138.03 114.29 135.937 116.385 135.937 119.122C135.937 122.505 138.032 123.874 142.87 125.97L145.69 127.177C155.27 131.286 160.68 135.474 160.68 144.891C160.68 155.044 152.705 160.606 141.994 160.606C131.522 160.606 124.756 155.615 121.446 149.074L130.61 143.75ZM90.7752 144.728C92.5467 147.87 94.1581 150.528 98.0324 150.528C101.737 150.528 104.074 149.078 104.074 143.442V105.099H115.35V143.594C115.35 155.27 108.505 160.585 98.5124 160.585C89.4838 160.585 84.2552 155.912 81.5962 150.285L90.7752 144.728Z" fill="black"/>
<path d="M69.3056 98.9895C62.2631 98.983 57.9178 95.0297 58.0012 87.755V69.3506C58.0012 65.6629 59.0845 62.8584 61.2511 60.9391C65.1423 57.2023 74.1705 56.975 77.9818 60.996C80.3303 63.0606 81.2163 67.2783 81.0058 71.2141H72.9227C72.9841 69.6675 72.9019 67.3253 71.9897 66.4433C70.8044 64.8443 67.674 65.0323 66.8462 66.6969C66.3375 67.5996 66.0831 68.9363 66.0831 70.7047V86.6817C66.0831 90.0316 67.2508 91.7257 69.5873 91.7629C70.6794 91.7629 71.5094 91.3672 72.0741 90.577C72.8624 89.6392 72.9852 87.5626 72.9216 86.0609H81.0047C81.5573 93.7193 77.0224 99.0846 69.3045 98.9895H69.3056ZM94.9668 98.9895C87.1634 99.0966 83.6723 93.5619 83.8883 86.0609H91.5185C91.3069 89.331 92.434 92.3093 95.1357 92.1017C96.3407 92.1017 97.1893 91.7257 97.6794 90.9726C98.6114 89.5966 98.7858 85.6226 97.4536 84.0848C96.5227 82.6038 93.1741 81.2966 91.4056 80.4157C88.8804 79.2113 87.0625 77.7817 85.9507 76.1247C83.4432 72.448 83.6756 64.3776 87.1941 61.1074C90.6128 57.0722 99.5412 56.8864 102.963 61.0233C105.074 63.1557 105.996 67.3515 105.817 71.213H98.4689C98.5314 69.626 98.3812 67.0652 97.7628 66.1318C97.3297 65.3416 96.5095 64.9459 95.3045 64.9459C93.1566 64.9459 92.0832 66.2258 92.0832 68.7844C92.1062 71.5015 93.1687 72.6163 95.6444 73.7519C98.8505 74.9935 102.927 77.1139 104.405 79.6802C108.813 87.4992 105.789 99.4431 94.9657 98.9873L94.9668 98.9895ZM119.611 98.9895C111.807 99.0966 108.316 93.5619 108.532 86.0609H116.162C115.951 89.331 117.078 92.3093 119.779 92.1017C120.984 92.1017 121.833 91.7257 122.323 90.9726C123.255 89.5966 123.43 85.6226 122.097 84.0848C121.166 82.6038 117.818 81.2966 116.049 80.4157C113.524 79.2113 111.706 77.7817 110.595 76.1247C108.087 72.448 108.319 64.3776 111.838 61.1074C115.257 57.0722 124.185 56.8864 127.607 61.0233C129.718 63.1557 130.64 67.3515 130.461 71.213H123.113C123.175 69.626 123.025 67.0652 122.407 66.1318C121.973 65.3416 121.153 64.9459 119.948 64.9459C117.8 64.9459 116.727 66.2258 116.727 68.7844C116.75 71.5015 117.812 72.6163 120.288 73.7519C123.494 74.9935 127.571 77.1139 129.049 79.6802C133.457 87.4992 130.433 99.4431 119.61 98.9873L119.611 98.9895Z" fill="black"/>
<path d="M147.219 90V68H152.781V90H147.219ZM139 81.7811V76.2189H161V81.7811H139Z" fill="black"/>
</g>
<defs>
<clipPath id="clip0_95_295">
<path d="M50 66C50 57.1634 57.1634 50 66 50H170V170H50V66Z" fill="white"/>
</clipPath>
</defs>
</svg>
