<svg width="220" height="220" viewBox="0 0 220 220" fill="none" xmlns="http://www.w3.org/2000/svg">
<rect width="220" height="220" rx="64" fill="#080F1E"/>
<g clip-path="url(#clip0_95_474)">
<path d="M110.001 110L162.005 140.029C161.686 140.583 161.222 141.055 160.649 141.386L112.042 169.453C110.78 170.182 109.223 170.182 107.961 169.453L59.3538 141.386C58.7801 141.055 58.3166 140.583 57.9972 140.029L110.001 110Z" fill="#72716D"/>
<path d="M110.001 50V110L57.9972 140.029C57.6777 139.476 57.5 138.837 57.5 138.175V81.8248C57.5 80.4995 58.2064 79.2777 59.3537 78.614L107.958 50.5468C108.591 50.1823 109.295 50 109.999 50H110.001Z" fill="#55544F"/>
<path d="M162.003 79.9707C161.683 79.4172 161.22 78.9447 160.646 78.614L112.039 50.5468C111.409 50.1823 110.705 50 110.001 50V110L162.005 140.029C162.324 139.476 162.502 138.837 162.502 138.175V81.8248C162.502 81.161 162.327 80.5265 162.005 79.9707H162.003Z" fill="#43413C"/>
<path d="M158.365 82.0723C158.66 82.5808 158.7 83.2333 158.365 83.8138L111.16 165.585C110.843 166.139 109.999 165.912 109.999 165.275V111.391C109.999 110.961 109.884 110.547 109.675 110.185L158.363 82.0701H158.365V82.0723Z" fill="#D6D5D2"/>
<path d="M158.365 82.0723L109.677 110.187C109.47 109.827 109.169 109.521 108.795 109.305L62.1389 82.3626C61.5855 82.0453 61.8127 81.2015 62.4493 81.2015H156.858C157.528 81.2015 158.073 81.5638 158.365 82.0723Z" fill="white"/>
</g>
<defs>
<clipPath id="clip0_95_474">
<rect width="105" height="120" fill="white" transform="translate(57.5 50)"/>
</clipPath>
</defs>
</svg>
