<svg width="220" height="220" viewBox="0 0 220 220" fill="none" xmlns="http://www.w3.org/2000/svg">
<rect width="220" height="220" rx="64" fill="#080F1E"/>
<g clip-path="url(#clip0_95_190)">
<path fill-rule="evenodd" clip-rule="evenodd" d="M109.998 51.495C76.8674 51.495 50 78.3579 50 111.493C50 138.004 67.1896 160.486 91.0299 168.423C94.0306 168.979 95.1335 167.119 95.1335 165.533C95.1335 164.102 95.0737 159.376 95.0493 154.367C78.3558 157.997 74.8368 147.285 74.8368 147.285C72.1083 140.349 68.1751 138.504 68.1751 138.504C62.7316 134.777 68.5893 134.859 68.5893 134.859C74.6129 135.28 77.7843 141.037 77.7843 141.037C83.1393 150.21 91.8249 147.555 95.2464 146.025C95.7867 142.147 97.337 139.498 99.0554 137.999C85.7279 136.486 71.7185 131.34 71.7185 108.348C71.7185 101.799 74.066 96.4443 77.8994 92.2453C77.2751 90.7306 75.2199 84.6316 78.4775 76.3689C78.4775 76.3689 83.5156 74.7545 94.9829 82.5189C99.7664 81.1923 104.898 80.5235 109.993 80.5014C115.093 80.5235 120.234 81.1901 125.024 82.5189C136.476 74.759 141.509 76.3689 141.509 76.3689C144.771 84.6339 142.725 90.7372 142.101 92.2455C145.947 96.4443 148.275 101.799 148.275 108.348C148.275 131.393 134.234 136.46 120.878 137.946C123.031 139.806 124.953 143.458 124.953 149.052C124.953 157.075 124.884 163.542 124.884 165.515C124.884 167.112 125.965 168.979 129.008 168.394C152.835 160.453 170.002 137.968 170.002 111.472C170.002 78.3421 143.139 51.4747 110.002 51.4747L109.998 51.4948L109.998 51.495Z" fill="white"/>
</g>
<defs>
<clipPath id="clip0_95_190">
<rect width="120" height="120" fill="white" transform="translate(50 50)"/>
</clipPath>
</defs>
</svg>
