<svg width="220" height="220" viewBox="0 0 220 220" fill="none" xmlns="http://www.w3.org/2000/svg">
<rect width="220" height="220" rx="64" fill="#080F1E"/>
<g clip-path="url(#clip0_95_302)">
<path d="M88.6494 121.979C88.4339 121.605 88.2849 121.195 88.2087 120.77C88.2931 121.194 88.4431 121.602 88.6494 121.979ZM89.1912 122.648C89.3994 122.854 89.6337 123.033 89.8934 123.162C89.634 123.029 89.3975 122.855 89.1931 122.648H89.1912Z" fill="#083042"/>
<path d="M110.321 145.594H110.189C108.875 145.6 107.58 145.272 106.426 144.642L80.0056 129.876C78.4466 129.002 77.4875 127.382 77.4875 125.632V95.5888C77.4875 94.3016 77.7209 93.0669 78.2656 91.9869L57.6069 80.4894C56.7509 82.2894 56.3103 84.3219 56.3356 86.4575V136.077C56.3507 137.512 56.7453 138.917 57.4794 140.151C58.2134 141.384 59.2607 142.401 60.515 143.098L104.091 167.485C106.013 168.565 108.166 169.079 110.294 169.079V169.054C110.346 165.942 110.321 153.464 110.321 145.594Z" fill="#083042"/>
<path d="M131.056 97.4375L130.9 97.2069C130.77 97.0269 130.642 96.8722 130.512 96.6931C130.642 96.8469 130.77 97.0278 130.9 97.2069C130.963 97.2756 131.016 97.3527 131.056 97.4375ZM109.308 85.4C109.439 85.4 109.543 85.3747 109.674 85.3747C109.543 85.4 109.413 85.4 109.308 85.4Z" fill="#3DDB85"/>
<path d="M78.2394 91.9597C78.8191 90.7597 79.7405 89.7578 80.8878 89.0797L105.75 74.5456C106.889 73.8763 108.183 73.5171 109.504 73.5036C110.825 73.4901 112.126 73.8229 113.278 74.4687L138.402 88.5397C139.529 89.1689 140.497 90.0487 141.231 91.1112L161.553 79.1C160.344 77.3599 158.756 75.9173 156.908 74.8812L115.406 51.6537C113.506 50.5923 111.362 50.0458 109.186 50.0683C107.009 50.0908 104.877 50.6816 103 51.7822L61.9672 75.755C60.0733 76.8615 58.5545 78.5103 57.6069 80.4884L78.2394 91.9597Z" fill="#3DDC84"/>
<path d="M88.6972 97.7487C88.7497 97.6456 88.8012 97.5425 88.8547 97.4675C88.8012 97.5697 88.7506 97.6456 88.6972 97.7487Z" fill="#3DDB85"/>
<path d="M161.527 79.1L141.205 91.1113C141.983 92.2428 142.451 93.5797 142.475 94.9447V123.548C142.491 124.858 142.158 126.149 141.51 127.288C140.863 128.427 139.924 129.373 138.791 130.03L113.926 144.566C112.829 145.206 111.588 145.56 110.318 145.594C110.345 153.44 110.345 165.916 110.292 169.029V169.054C112.472 169.03 114.608 168.445 116.496 167.355L157.529 143.356C161.345 141.118 163.681 137.053 163.629 132.655V85.4534C163.603 83.1641 162.824 80.9778 161.527 79.1Z" fill="#4285F4"/>
<path d="M131.528 120.488C131.502 120.54 131.502 120.592 131.475 120.645C131.505 120.598 131.523 120.544 131.528 120.488ZM131.267 97.775C131.214 97.6456 131.136 97.5425 131.058 97.4141C131.136 97.5425 131.215 97.6719 131.267 97.775ZM112.632 133.04L129.294 123.292L112.632 133.042V133.04ZM131.319 121.079C131.266 121.209 131.188 121.337 131.135 121.467C131.188 121.312 131.24 121.183 131.319 121.079Z" fill="#4285F4"/>
<path d="M88.6231 97.9794C88.4118 98.4791 88.2805 99.0091 88.2341 99.5497C88.2078 99.7541 88.2078 99.9603 88.2078 100.193V120.333C88.2078 120.487 88.2078 120.616 88.2341 120.771C88.2866 121.207 88.4422 121.619 88.6747 121.98C88.8313 122.237 89.0122 122.442 89.195 122.648C89.4031 122.854 89.6356 123.033 89.8944 123.163L107.596 133.066C108.366 133.492 109.233 133.713 110.113 133.708H110.295C111.121 133.681 111.925 133.442 112.632 133.015L129.294 123.266C129.398 123.214 129.476 123.136 129.58 123.086C129.762 122.957 129.943 122.828 130.099 122.673C130.343 122.452 130.569 122.212 130.773 121.953C130.903 121.773 131.033 121.594 131.137 121.413C131.214 121.286 131.267 121.156 131.318 121.027C131.37 120.9 131.449 120.745 131.501 120.591C131.526 120.538 131.526 120.487 131.552 120.436C131.709 119.937 131.788 119.416 131.786 118.892V99.7288C131.786 99.3697 131.733 99.035 131.656 98.7013C131.605 98.4688 131.525 98.2625 131.448 98.0563L131.293 97.7488C131.241 97.6194 131.161 97.5172 131.084 97.3878L130.929 97.1572C130.799 96.9763 130.669 96.8225 130.54 96.6425C130.117 96.1499 129.606 95.7398 129.034 95.4331L112.191 85.9944C111.9 85.8308 111.596 85.6928 111.282 85.5819C110.86 85.4531 110.424 85.3757 109.983 85.3513H109.646C109.517 85.3513 109.413 85.3513 109.284 85.3756C108.986 85.4022 108.69 85.4539 108.401 85.5303C108.349 85.5556 108.298 85.5556 108.245 85.5828C107.856 85.6859 107.492 85.865 107.128 86.0703L90.4663 95.8203C89.9819 96.1034 89.5582 96.4794 89.2194 96.9266C89.0909 97.1066 88.9606 97.2866 88.8566 97.4666C88.805 97.5697 88.7534 97.6466 88.7009 97.7497L88.6231 97.9794Z" fill="#D6F0FF"/>
<path d="M110.293 133.708H110.111C109.23 133.712 108.364 133.491 107.593 133.066L89.8925 123.163C89.6383 123.021 89.4027 122.848 89.1913 122.648C88.9883 122.449 88.8136 122.224 88.6719 121.978C88.4564 121.604 88.3073 121.195 88.2313 120.769C88.2041 120.616 88.2041 120.487 88.2041 120.333V100.191C88.2041 99.9856 88.2041 99.755 88.2313 99.5478C88.2809 99.0088 88.4113 98.4791 88.6203 97.9784L83.8438 95.0731L78.2375 91.9606C77.7181 93.0406 77.4594 94.2744 77.4594 95.5616V125.606C77.4749 126.471 77.7151 127.317 78.1564 128.061C78.5977 128.805 79.2249 129.422 79.9766 129.851L106.374 144.641C107.523 145.282 108.821 145.61 110.137 145.593H110.268C110.268 141.76 110.241 139.033 110.241 139.033L110.293 133.708Z" fill="#083042"/>
<path d="M110.293 133.708H110.111C109.23 133.712 108.364 133.491 107.593 133.066L89.8925 123.163C89.6383 123.021 89.4027 122.848 89.1913 122.648C88.9883 122.449 88.8136 122.224 88.6719 121.978C88.4564 121.604 88.3073 121.195 88.2313 120.769C88.2041 120.616 88.2041 120.487 88.2041 120.333V100.191C88.2041 99.9856 88.2041 99.755 88.2313 99.5478C88.2809 99.0088 88.4113 98.4791 88.6203 97.9784L83.8438 95.0731L78.2375 91.9606C77.7181 93.0406 77.4594 94.2744 77.4594 95.5616V125.606C77.4749 126.471 77.7151 127.317 78.1564 128.061C78.5977 128.805 79.2249 129.422 79.9766 129.851L106.374 144.641C107.523 145.282 108.821 145.61 110.137 145.593H110.268C110.268 141.76 110.241 139.033 110.241 139.033L110.293 133.708Z" fill="#080F1E"/>
<path d="M138.374 88.5397L113.25 74.4678C112.098 73.8223 110.797 73.4899 109.476 73.5035C108.156 73.5172 106.862 73.8765 105.723 74.5456L80.8606 89.0806C79.7068 89.7514 78.7832 90.7558 78.2112 91.9616L83.8456 95.0741L88.6203 97.9794L88.6972 97.7488C88.7497 97.6447 88.8012 97.5425 88.8528 97.4656C88.9569 97.2856 89.0872 97.1056 89.2166 96.9256C89.5541 96.4878 89.9694 96.1288 90.4634 95.8194L107.125 86.0694C107.481 85.8697 107.853 85.7066 108.241 85.5819C108.294 85.5566 108.345 85.5566 108.397 85.5294C108.686 85.4506 108.981 85.4 109.279 85.3756C109.408 85.3756 109.512 85.3494 109.643 85.3494H109.98C110.42 85.3775 110.855 85.4534 111.278 85.58C111.597 85.6813 111.901 85.8191 112.186 85.9934L129.029 95.4341C129.598 95.7468 130.108 96.1556 130.537 96.6425C130.665 96.7963 130.797 96.9772 130.925 97.1563L131.082 97.3869L135.389 94.5331L141.229 91.0606C140.476 90.0566 139.516 89.1566 138.374 88.5397Z" fill="#3DDB85"/>
<path d="M138.374 88.5397L113.25 74.4678C112.098 73.8223 110.797 73.4899 109.476 73.5035C108.156 73.5172 106.862 73.8765 105.723 74.5456L80.8606 89.0806C79.7068 89.7514 78.7832 90.7558 78.2112 91.9616L83.8456 95.0741L88.6203 97.9794L88.6972 97.7488C88.7497 97.6447 88.8012 97.5425 88.8528 97.4656C88.9569 97.2856 89.0872 97.1056 89.2166 96.9256C89.5541 96.4878 89.9694 96.1288 90.4634 95.8194L107.125 86.0694C107.481 85.8697 107.853 85.7066 108.241 85.5819C108.294 85.5566 108.345 85.5566 108.397 85.5294C108.686 85.4506 108.981 85.4 109.279 85.3756C109.408 85.3756 109.512 85.3494 109.643 85.3494H109.98C110.42 85.3775 110.855 85.4534 111.278 85.58C111.597 85.6813 111.901 85.8191 112.186 85.9934L129.029 95.4341C129.598 95.7468 130.108 96.1556 130.537 96.6425C130.665 96.7963 130.797 96.9772 130.925 97.1563L131.082 97.3869L135.389 94.5331L141.229 91.0606C140.476 90.0566 139.516 89.1566 138.374 88.5397Z" fill="#37BF6E"/>
<path d="M131.056 97.4394C131.134 97.5669 131.187 97.67 131.263 97.7994L131.42 98.1078C131.638 98.6383 131.753 99.2057 131.758 99.7794V118.944C131.759 119.467 131.68 119.988 131.523 120.487C131.498 120.537 131.498 120.59 131.472 120.641C131.422 120.791 131.362 120.938 131.291 121.079C131.237 121.206 131.159 121.335 131.108 121.464C131.005 121.645 130.874 121.824 130.744 122.005C130.54 122.263 130.315 122.503 130.07 122.724C129.914 122.878 129.732 123.007 129.551 123.136C129.447 123.187 129.37 123.265 129.266 123.316L112.603 133.064C111.886 133.469 111.087 133.707 110.266 133.76V139.084C110.266 139.084 110.266 141.811 110.293 145.644C111.564 145.621 112.808 145.267 113.901 144.615L138.763 130.08C141.074 128.718 142.476 126.248 142.45 123.599V94.9953C142.424 93.6059 141.958 92.2934 141.179 91.1619L135.338 94.6353L131.056 97.4394Z" fill="#4285F4"/>
<path d="M131.056 97.4394C131.134 97.5669 131.187 97.67 131.263 97.7994L131.42 98.1078C131.638 98.6383 131.753 99.2057 131.758 99.7794V118.944C131.759 119.467 131.68 119.988 131.523 120.487C131.498 120.537 131.498 120.59 131.472 120.641C131.422 120.791 131.362 120.938 131.291 121.079C131.237 121.206 131.159 121.335 131.108 121.464C131.005 121.645 130.874 121.824 130.744 122.005C130.54 122.263 130.315 122.503 130.07 122.724C129.914 122.878 129.732 123.007 129.551 123.136C129.447 123.187 129.37 123.265 129.266 123.316L112.603 133.064C111.886 133.469 111.087 133.707 110.266 133.76V139.084C110.266 139.084 110.266 141.811 110.293 145.644C111.564 145.621 112.808 145.267 113.901 144.615L138.763 130.08C141.074 128.718 142.476 126.248 142.45 123.599V94.9953C142.424 93.6059 141.958 92.2934 141.179 91.1619L135.338 94.6353L131.056 97.4394Z" fill="#3870B2"/>
<path d="M108.27 85.6081C107.88 85.7112 107.517 85.8912 107.155 86.0956L90.4916 95.8456L107.153 86.0975C107.499 85.8824 107.875 85.7182 108.268 85.61L108.27 85.6081Z" fill="#D6F0FF"/>
<path opacity="0.1" d="M108.27 85.6081C107.88 85.7112 107.517 85.8912 107.155 86.0956L90.4916 95.8456L107.153 86.0975C107.499 85.8824 107.875 85.7182 108.268 85.61L108.27 85.6081Z" fill="black"/>
<path d="M131.42 98.0834C131.5 98.2933 131.569 98.5074 131.626 98.7247C131.575 98.5194 131.495 98.3141 131.418 98.0834H131.42Z" fill="#D6F0FF"/>
<path opacity="0.1" d="M131.42 98.0834C131.5 98.2933 131.569 98.5074 131.626 98.7247C131.575 98.5194 131.495 98.3141 131.418 98.0834H131.42Z" fill="black"/>
</g>
<defs>
<clipPath id="clip0_95_302">
<rect width="108" height="120" fill="white" transform="translate(56 50)"/>
</clipPath>
</defs>
</svg>
