<svg width="220" height="220" viewBox="0 0 220 220" fill="none" xmlns="http://www.w3.org/2000/svg">
<rect width="220" height="220" rx="64" fill="#080F1E"/>
<g clip-path="url(#clip0_95_193)">
<path d="M165.029 50H107.256C107.256 64.4 118.911 76.06 133.315 76.06H143.94V86.3425C143.94 100.743 155.6 112.402 170 112.402V54.9712C169.999 53.6531 169.475 52.3892 168.543 51.4571C167.611 50.5251 166.347 50.001 165.029 50Z" fill="#2684FF"/>
<path d="M136.401 78.8H78.6274C78.6274 93.1988 90.2837 104.859 104.682 104.859H115.312V115.141C115.312 129.541 126.972 141.201 141.372 141.201V83.77C141.37 82.4522 140.846 81.1888 139.914 80.257C138.982 79.3251 137.719 78.802 136.401 78.8Z" fill="url(#paint0_linear_95_193)"/>
<path d="M107.774 107.598H50C50 122.003 61.655 133.658 76.06 133.658H86.685V143.945C86.685 158.345 98.345 170 112.744 170V112.574C112.742 111.256 112.219 109.992 111.287 109.059C110.355 108.127 109.092 107.6 107.774 107.598Z" fill="url(#paint1_linear_95_193)"/>
</g>
<defs>
<linearGradient id="paint0_linear_95_193" x1="140.17" y1="78.865" x2="115.59" y2="104.21" gradientUnits="userSpaceOnUse">
<stop offset="0.176" stop-color="#0052CC"/>
<stop offset="1" stop-color="#2684FF"/>
</linearGradient>
<linearGradient id="paint1_linear_95_193" x1="113.205" y1="107.82" x2="84.785" y2="135.47" gradientUnits="userSpaceOnUse">
<stop offset="0.176" stop-color="#0052CC"/>
<stop offset="1" stop-color="#2684FF"/>
</linearGradient>
<clipPath id="clip0_95_193">
<rect width="120" height="120" fill="white" transform="translate(50 50)"/>
</clipPath>
</defs>
</svg>
