<svg width="220" height="220" viewBox="0 0 220 220" fill="none" xmlns="http://www.w3.org/2000/svg">
<rect width="220" height="220" rx="64" fill="#080F1E"/>
<g clip-path="url(#clip0_95_202)">
<path d="M50.2339 116.287C51.6163 129.485 57.3648 142.312 67.4792 152.427C77.5936 162.541 90.4206 168.289 103.619 169.672L50.2339 116.287Z" fill="white"/>
<path d="M50 106.625L113.281 169.905C118.651 169.605 123.987 168.586 129.136 166.849L53.0567 90.7699C51.3195 95.9181 50.3007 101.255 50 106.625Z" fill="white"/>
<path d="M55.7815 84.0666L135.839 164.124C139.992 162.134 143.964 159.639 147.662 156.637L63.2681 72.2439C60.2671 75.9417 57.7716 79.9133 55.7815 84.0666Z" fill="white"/>
<path d="M67.7534 67.3011C91.2061 44.1425 128.992 44.2333 152.332 67.5736C175.672 90.9139 175.763 128.699 152.605 152.152L67.7534 67.3011Z" fill="white"/>
</g>
<defs>
<clipPath id="clip0_95_202">
<rect width="120" height="120" fill="white" transform="translate(50 50)"/>
</clipPath>
</defs>
</svg>
