<svg width="220" height="220" viewBox="0 0 220 220" fill="none" xmlns="http://www.w3.org/2000/svg">
<rect width="220" height="220" rx="64" fill="#080F1E"/>
<g clip-path="url(#clip0_95_277)">
<path d="M154.43 69.71C154.43 69.71 154.22 69.47 154.1 69.35C143.12 57.47 127.4 50 110 50C92.6 50 76.91 57.47 65.93 69.35C65.81 69.47 65.72 69.59 65.6 69.71C55.91 80.39 50 94.52 50 110C50 143.09 76.94 170 110 170C143.06 170 170 143.09 170 110C170 94.52 164.09 80.39 154.43 69.71ZM68 148.49C58.67 138.35 53 124.82 53 110C53 95.18 58.31 82.61 67.04 72.59C67.34 72.23 67.67 71.87 68 71.51V148.49ZM71.48 68.03L71.51 68C81.65 58.67 95.21 53 110 53C124.79 53 138.35 58.67 148.49 68H148.55C148.55 68 148.67 68.15 148.73 68.21H71.27C71.27 68.21 71.42 68.09 71.48 68.03ZM147.05 71L110.03 145.07L72.98 71H147.05ZM71 73.73L108.32 148.43L108.62 149H71V73.73ZM110 167C95.21 167 81.65 161.33 71.51 152H148.49C138.35 161.33 124.82 167 110 167ZM149 149H111.41L111.68 148.43L149 73.79V149ZM152 148.49V71.51C152.33 71.87 152.66 72.23 152.96 72.59C161.69 82.61 167 95.69 167 110C167 124.31 161.33 138.35 152 148.49Z" fill="white"/>
</g>
<defs>
<clipPath id="clip0_95_277">
<rect width="120" height="120" fill="white" transform="translate(50 50)"/>
</clipPath>
</defs>
</svg>
