<svg width="220" height="220" viewBox="0 0 220 220" fill="none" xmlns="http://www.w3.org/2000/svg">
<rect width="220" height="220" rx="64" fill="#080F1E"/>
<path d="M168.322 45.0716C168.332 45.2213 168.336 45.3713 168.336 45.5213V174.479C168.336 178.46 165.082 181.688 161.068 181.688C160.959 181.688 160.851 181.685 160.742 181.68L63.728 177.359C59.9496 177.19 56.9329 174.176 56.7911 170.428L52.3129 52.0829C52.165 48.1744 55.1867 44.862 59.1225 44.6181L138.678 39.6861L137.986 55.9356C137.978 56.1229 138.02 56.3079 138.106 56.4727L138.206 56.6301C138.567 57.1033 139.248 57.1959 139.725 56.837L146.088 52.0492L151.463 56.2487C151.665 56.406 151.916 56.4875 152.172 56.4786C152.77 56.4579 153.239 55.96 153.218 55.3665L152.616 38.8212L160.615 38.3268C164.621 38.0784 168.072 41.0982 168.322 45.0716Z" fill="#FF4785"/>
<mask id="mask0_95_238" style="mask-type:luminance" maskUnits="userSpaceOnUse" x="52" y="38" width="117" height="144">
<path d="M56.7911 170.428L52.3129 52.0829C52.165 48.1744 55.1867 44.862 59.1225 44.6181L160.615 38.3268C164.621 38.0784 168.072 41.0982 168.322 45.0716C168.332 45.2213 168.336 45.3713 168.336 45.5213V174.479C168.336 178.46 165.082 181.688 161.068 181.688C160.959 181.688 160.851 181.685 160.742 181.68L63.728 177.359C59.9496 177.19 56.9329 174.176 56.7911 170.428Z" fill="white"/>
</mask>
<g mask="url(#mask0_95_238)">
<path d="M120.161 92.3525C120.161 95.157 139.208 93.8129 141.765 91.8429C141.765 72.7447 131.432 62.7089 112.512 62.7089C93.592 62.7089 82.9913 72.9008 82.9913 88.1888C82.9913 114.815 119.222 115.325 119.222 129.848C119.222 133.925 117.209 136.346 112.781 136.346C107.011 136.346 104.729 133.423 104.998 123.486C104.998 121.33 82.9913 120.658 82.3204 123.486C80.6119 147.567 95.739 154.513 113.049 154.513C129.822 154.513 142.972 145.646 142.972 129.594C142.972 101.056 106.205 101.821 106.205 87.6792C106.205 81.9462 110.499 81.1818 113.049 81.1818C115.733 81.1818 120.563 81.6509 120.161 92.3525Z" fill="white"/>
</g>
<mask id="mask1_95_238" style="mask-type:luminance" maskUnits="userSpaceOnUse" x="52" y="38" width="117" height="144">
<path d="M56.7911 170.428L52.3129 52.0829C52.165 48.1744 55.1867 44.862 59.1225 44.6181L160.615 38.3268C164.621 38.0784 168.072 41.0982 168.322 45.0716C168.332 45.2213 168.336 45.3713 168.336 45.5213V174.479C168.336 178.46 165.082 181.688 161.068 181.688C160.959 181.688 160.851 181.685 160.742 181.68L63.728 177.359C59.9496 177.19 56.9329 174.176 56.7911 170.428Z" fill="white"/>
</mask>
<g mask="url(#mask1_95_238)">
<path d="M137.986 55.9356L138.679 39.6805L152.617 38.8173L153.218 55.3664C153.239 55.96 152.77 56.4579 152.172 56.4786C151.916 56.4875 151.665 56.406 151.463 56.2487L146.088 52.0492L139.725 56.8369C139.247 57.1959 138.567 57.1033 138.206 56.6301C138.053 56.4309 137.976 56.1853 137.986 55.9356Z" fill="white"/>
</g>
</svg>
