<svg width="220" height="220" viewBox="0 0 220 220" fill="none" xmlns="http://www.w3.org/2000/svg">
<rect width="220" height="220" rx="64" fill="#080F1E"/>
<g clip-path="url(#clip0_95_332)">
<path d="M76.6719 50C77.375 50 141.969 50 143.141 50C146.375 50 149.516 50.5156 152.563 51.5938C156.969 53.1875 160.953 56 163.953 59.6563C167 63.3125 169.016 67.8125 169.719 72.5C170 74.2344 170.047 75.9687 170.047 77.7031C170.047 79.2969 170.047 135.453 170.047 137.984C170.047 139.484 170.047 141.031 170.047 142.531C170.047 144.594 169.953 146.703 169.531 148.719C168.594 153.359 166.391 157.719 163.203 161.234C160.062 164.75 155.937 167.375 151.484 168.781C148.766 169.625 145.953 170 143.094 170C141.828 170 76.4844 170 75.5 169.953C70.7188 169.719 65.9844 168.172 62 165.5C58.1094 162.875 54.9219 159.219 52.8594 155C51.0781 151.391 50.1875 147.359 50.1875 143.328C50.1875 142.391 50.1875 77.6094 50.1875 76.6719C50.0938 72.6875 50.9375 68.75 52.6719 65.1875C54.6875 60.9688 57.8281 57.2656 61.7188 54.6406C65.7031 51.9219 70.3906 50.3281 75.1719 50.0938C75.6406 50 76.1563 50 76.6719 50Z" fill="url(#paint0_linear_95_332)"/>
<path d="M151.25 148.156C150.828 147.5 150.359 146.844 149.844 146.234C148.672 144.828 147.312 143.609 145.812 142.578C143.937 141.312 141.734 140.516 139.484 140.422C137.891 140.328 136.297 140.609 134.797 141.172C133.297 141.688 131.844 142.438 130.438 143.188C128.797 144.031 127.156 144.875 125.422 145.578C123.359 146.422 121.203 147.078 119 147.547C116.234 148.063 113.422 148.25 110.656 148.203C105.641 148.109 100.625 147.359 95.8438 145.953C91.625 144.687 87.5937 142.953 83.7969 140.75C80.4687 138.828 77.375 136.625 74.4688 134.141C72.0781 132.078 69.875 129.875 67.8125 127.531C66.4062 125.891 65.0469 124.156 63.7812 122.375C63.2656 121.672 62.7969 120.922 62.375 120.172L50 106.812V76.5781C50 61.9063 61.8594 50 76.5312 50H100.203L117.734 67.8125C157.297 94.7188 144.5 124.391 144.5 124.391C144.5 124.391 155.75 137.047 151.25 148.156Z" fill="url(#paint1_linear_95_332)"/>
<path d="M117.828 67.8125C157.391 94.7188 144.594 124.391 144.594 124.391C144.594 124.391 155.844 137.094 151.297 148.203C151.297 148.203 146.656 140.422 138.875 140.422C131.375 140.422 126.969 148.203 111.875 148.203C78.2656 148.203 62.375 120.125 62.375 120.125C92.6562 140.047 113.328 125.938 113.328 125.938C99.6875 118.016 70.6719 80.1406 70.6719 80.1406C95.9375 101.656 106.859 107.328 106.859 107.328C100.344 101.938 82.0625 75.5937 82.0625 75.5937C96.6875 90.4062 125.75 111.078 125.75 111.078C134 88.2031 117.828 67.8125 117.828 67.8125Z" fill="#041047"/>
</g>
<defs>
<linearGradient id="paint0_linear_95_332" x1="121.386" y1="45.7181" x2="98.714" y2="174.297" gradientUnits="userSpaceOnUse">
<stop stop-color="#00D7FF"/>
<stop offset="1" stop-color="#006CFF"/>
</linearGradient>
<linearGradient id="paint1_linear_95_332" x1="111.224" y1="51.9389" x2="94.6311" y2="146.043" gradientUnits="userSpaceOnUse">
<stop stop-color="#00C4EF"/>
<stop offset="1" stop-color="#0068C4"/>
</linearGradient>
<clipPath id="clip0_95_332">
<rect width="120" height="120" fill="white" transform="translate(50 50)"/>
</clipPath>
</defs>
</svg>
