<svg width="220" height="220" viewBox="0 0 220 220" fill="none" xmlns="http://www.w3.org/2000/svg">
<rect width="220" height="220" rx="64" fill="#080F1E"/>
<g clip-path="url(#clip0_95_274)">
<path fill-rule="evenodd" clip-rule="evenodd" d="M110 74.5C94.0039 74.5 84.0039 82.3889 80 98.1667C86.0026 90.281 93.0013 87.3231 100.996 89.2929C105.566 90.4166 108.809 93.6813 112.441 97.2948C118.301 103.185 125.137 109.995 140 109.995C155.996 109.995 165.996 102.106 170 86.3285C164.004 94.2206 157.005 97.1785 149.004 95.2023C144.434 94.0785 141.191 90.8138 137.559 87.2004C131.68 81.2813 124.873 74.5 110 74.5ZM80 109.995C64.0039 109.995 54.0039 117.884 50 133.662C56.0091 125.776 63.0078 122.818 70.9961 124.788C75.5664 125.912 78.8086 129.176 82.4414 132.8C88.3008 138.68 95.1367 145.5 110 145.5C125.996 145.5 135.996 137.611 140 121.833C134.004 129.719 127.005 132.67 119.004 130.688C114.434 129.564 111.191 126.299 107.559 122.686C101.699 116.796 94.8633 109.976 80 109.976V109.995Z" fill="#06B6D4"/>
</g>
<defs>
<clipPath id="clip0_95_274">
<rect width="120" height="71" fill="white" transform="translate(50 74.5)"/>
</clipPath>
</defs>
</svg>
