<svg width="220" height="220" viewBox="0 0 220 220" fill="none" xmlns="http://www.w3.org/2000/svg">
<rect width="220" height="220" rx="64" fill="#080F1E"/>
<g clip-path="url(#clip0_95_291)">
<path d="M50 50H150.8C155.892 50 160.776 52.0229 164.376 55.6235C167.977 59.2242 170 64.1078 170 69.2V150.8C170 155.892 167.977 160.776 164.376 164.376C160.776 167.977 155.892 170 150.8 170H69.2C64.1078 170 59.2242 167.977 55.6235 164.376C52.0229 160.776 50 155.892 50 150.8V50Z" fill="#663399"/>
<path d="M92.972 160.4C85.2644 160.393 80.5088 156.052 80.6 148.065V127.858C80.6 123.81 81.7856 120.73 84.1568 118.623C88.4156 114.52 98.2964 114.271 102.468 118.686C105.038 120.952 106.008 125.583 105.777 129.904H96.9308C96.998 128.206 96.908 125.635 95.9096 124.666C94.6124 122.911 91.1864 123.117 90.2804 124.945C89.7236 125.936 89.4452 127.404 89.4452 129.345V146.887C89.4452 150.565 90.7232 152.425 93.2804 152.466C94.4756 152.466 95.384 152.031 96.002 151.164C96.8648 150.134 96.9992 147.854 96.9296 146.205H105.776C106.381 154.614 101.418 160.504 92.9708 160.4H92.972ZM121.057 160.4C112.516 160.518 108.696 154.441 108.932 146.205H117.283C117.051 149.796 118.285 153.066 121.242 152.838C122.56 152.838 123.489 152.425 124.026 151.598C125.046 150.087 125.236 145.724 123.778 144.036C122.76 142.41 119.095 140.974 117.159 140.007C114.396 138.685 112.406 137.115 111.189 135.296C108.445 131.259 108.699 122.398 112.55 118.808C116.292 114.378 126.063 114.174 129.808 118.716C132.118 121.057 133.128 125.664 132.932 129.903H124.89C124.958 128.161 124.794 125.349 124.117 124.324C123.643 123.457 122.745 123.022 121.426 123.022C119.076 123.022 117.901 124.428 117.901 127.237C117.926 130.22 119.089 131.444 121.798 132.691C125.307 134.054 129.769 136.382 131.386 139.2C136.21 147.784 132.901 160.898 121.056 160.398L121.057 160.4ZM148.028 160.4C139.488 160.518 135.667 154.441 135.903 146.205H144.254C144.022 149.796 145.256 153.066 148.213 152.838C149.532 152.838 150.46 152.425 150.997 151.598C152.017 150.087 152.208 145.724 150.75 144.036C149.731 142.41 146.066 140.974 144.13 140.007C141.367 138.685 139.377 137.115 138.16 135.296C135.416 131.259 135.67 122.398 139.521 118.808C143.263 114.378 153.034 114.174 156.78 118.716C159.09 121.057 160.099 125.664 159.903 129.903H151.861C151.929 128.161 151.765 125.349 151.088 124.324C150.614 123.457 149.716 123.022 148.398 123.022C146.047 123.022 144.872 124.428 144.872 127.237C144.897 130.22 146.06 131.444 148.77 132.691C152.278 134.054 156.74 136.382 158.358 139.2C163.182 147.784 159.872 160.898 148.027 160.398L148.028 160.4Z" fill="white"/>
</g>
<defs>
<clipPath id="clip0_95_291">
<rect width="120" height="120" fill="white" transform="translate(50 50)"/>
</clipPath>
</defs>
</svg>
