<svg width="220" height="220" viewBox="0 0 220 220" fill="none" xmlns="http://www.w3.org/2000/svg">
<rect width="220" height="220" rx="64" fill="#080F1E"/>
<g clip-path="url(#clip0_95_326)">
<path d="M139.288 72.3093L149.235 55.0353C149.797 54.0669 149.457 52.8368 148.504 52.2741C147.551 51.7114 146.311 52.0385 145.763 53.0069L135.685 70.5034C127.996 66.9831 119.34 65.0202 110.032 65.0202C100.724 65.0202 92.0691 66.9831 84.3799 70.5034L74.3017 53.0069C73.7404 52.0385 72.5132 51.7114 71.5472 52.2741C70.5811 52.8368 70.2548 54.0669 70.8161 55.0353L80.7637 72.3093C63.6099 81.6268 51.9913 99.0316 50.0723 119.407H169.992C168.073 99.0315 156.455 81.6266 139.288 72.3093ZM82.5 102.526C79.7194 102.526 77.474 100.262 77.474 97.4874C77.474 94.7 79.7325 92.4492 82.5 92.4492C85.2807 92.4492 87.5261 94.7131 87.5261 97.4874C87.5392 100.262 85.2807 102.526 82.5 102.526ZM137.552 102.526C134.771 102.526 132.526 100.262 132.526 97.4874C132.526 94.7 134.784 92.4492 137.552 92.4492C140.332 92.4492 142.578 94.7131 142.578 97.4874C142.591 100.262 140.332 102.526 137.552 102.526Z" fill="#32DE84"/>
<path d="M60.0638 128L68.3269 141.974H68.647L76.9501 128H86.7338L74.2291 148.5L87.0139 169H77.0501L68.647 155.006H68.3269L59.9237 169H50L62.8248 148.5L50.2401 128H60.0638Z" fill="white"/>
<path d="M92.2158 128H102.9L114.184 155.547H114.664L125.948 128H136.632V169H128.229V142.314H127.889L117.285 168.8H111.563L100.959 142.214H100.619V169H92.2158V128Z" fill="white"/>
<path d="M143.77 169V128H152.433V161.853H170V169H143.77Z" fill="white"/>
</g>
<defs>
<clipPath id="clip0_95_326">
<rect width="120" height="118" fill="white" transform="translate(50 51)"/>
</clipPath>
</defs>
</svg>
