<svg width="220" height="220" viewBox="0 0 220 220" fill="none" xmlns="http://www.w3.org/2000/svg">
<rect width="220" height="220" rx="64" fill="white"/>
<g clip-path="url(#clip0_95_154)">
<path d="M51.1575 65.6824C50.8726 57.5235 57.2467 50 65.8626 50H154.148C162.764 50 169.138 57.5235 168.853 65.6824C168.58 73.5197 168.935 83.6721 171.497 91.95C174.067 100.254 178.402 105.502 185.5 106.176V113.824C178.402 114.498 174.067 119.746 171.497 128.05C168.935 136.328 168.58 146.48 168.853 154.318C169.138 162.476 162.764 170 154.148 170H65.8626C57.2467 170 50.8726 162.476 51.1578 154.318C51.4312 146.48 51.0758 136.328 48.5135 128.05C45.9436 119.746 41.5988 114.498 34.5 113.824V106.176C41.5985 105.502 45.9436 100.254 48.5135 91.95C51.0758 83.6721 51.4312 73.5197 51.1575 65.6824Z" fill="url(#paint0_linear_95_154)"/>
<g filter="url(#filter0_d_95_154)">
<path d="M113.274 141.899C127.223 141.899 135.629 135.088 135.629 123.854C135.629 115.361 129.631 109.214 120.726 108.24V107.886C127.269 106.825 132.403 100.766 132.403 93.9985C132.403 84.3564 124.77 78.0756 113.138 78.0756H86.9668V141.899H113.274ZM97.1445 86.1697H110.685C118.045 86.1697 122.225 89.4426 122.225 95.3694C122.225 101.694 117.364 105.233 108.549 105.233H97.1445V86.1697ZM97.1445 133.805V112.796H110.594C120.226 112.796 125.224 116.334 125.224 123.234C125.224 130.134 120.363 133.805 111.184 133.805H97.1445Z" fill="url(#paint1_linear_95_154)"/>
<path d="M113.274 141.899C127.223 141.899 135.629 135.088 135.629 123.854C135.629 115.361 129.631 109.214 120.726 108.24V107.886C127.269 106.825 132.403 100.766 132.403 93.9985C132.403 84.3564 124.77 78.0756 113.138 78.0756H86.9668V141.899H113.274ZM97.1445 86.1697H110.685C118.045 86.1697 122.225 89.4426 122.225 95.3694C122.225 101.694 117.364 105.233 108.549 105.233H97.1445V86.1697ZM97.1445 133.805V112.796H110.594C120.226 112.796 125.224 116.334 125.224 123.234C125.224 130.134 120.363 133.805 111.184 133.805H97.1445Z" stroke="white"/>
</g>
</g>
<defs>
<filter id="filter0_d_95_154" x="70.4668" y="65.5756" width="81.6621" height="96.8235" filterUnits="userSpaceOnUse" color-interpolation-filters="sRGB">
<feFlood flood-opacity="0" result="BackgroundImageFix"/>
<feColorMatrix in="SourceAlpha" type="matrix" values="0 0 0 0 0 0 0 0 0 0 0 0 0 0 0 0 0 0 127 0" result="hardAlpha"/>
<feOffset dy="4"/>
<feGaussianBlur stdDeviation="8"/>
<feColorMatrix type="matrix" values="0 0 0 0 0 0 0 0 0 0 0 0 0 0 0 0 0 0 0.15 0"/>
<feBlend mode="normal" in2="BackgroundImageFix" result="effect1_dropShadow_95_154"/>
<feBlend mode="normal" in="SourceGraphic" in2="effect1_dropShadow_95_154" result="shape"/>
</filter>
<linearGradient id="paint0_linear_95_154" x1="56.9374" y1="53.1759" x2="188.607" y2="157.981" gradientUnits="userSpaceOnUse">
<stop stop-color="#9013FE"/>
<stop offset="1" stop-color="#6610F2"/>
</linearGradient>
<linearGradient id="paint1_linear_95_154" x1="91.5696" y1="82.2764" x2="120.944" y2="132.091" gradientUnits="userSpaceOnUse">
<stop stop-color="white"/>
<stop offset="1" stop-color="#F1E5FC"/>
</linearGradient>
<clipPath id="clip0_95_154">
<rect width="151" height="120" fill="white" transform="translate(34.5 50)"/>
</clipPath>
</defs>
</svg>
