<svg width="220" height="220" viewBox="0 0 220 220" fill="none" xmlns="http://www.w3.org/2000/svg">
<rect width="220" height="220" rx="64" fill="white"/>
<g clip-path="url(#clip0_95_156)">
<path d="M109.89 107.827C109.89 97.9804 117.87 90.0009 127.71 90.0009H130.287C130.358 90.0032 130.435 89.9985 130.507 89.9985C141.548 89.9985 150.5 98.9571 150.5 110C150.5 121.043 141.548 129.999 130.507 129.999C130.435 129.999 130.358 129.997 130.285 129.997L127.71 129.999C117.87 129.999 109.89 122.015 109.89 112.171V107.827Z" fill="#00B6FF"/>
<path d="M69.5 150.003C69.5 138.958 78.4521 129.999 89.4925 129.999L109.89 130.002V149.797C109.89 160.957 100.746 170 89.5908 170C78.5528 170 69.5 161.046 69.5 150.003Z" fill="#24CB71"/>
<path d="M109.89 50.0023V90.0008H130.287C130.358 89.9984 130.435 90.0031 130.507 90.0031C141.548 90.0031 150.5 81.0446 150.5 70.0016C150.5 58.9562 141.548 50 130.507 50C130.435 50 130.358 50.0023 130.285 50.0023H109.89Z" fill="#FF7237"/>
<path d="M69.5 69.9993C69.5 81.0447 78.4521 90.0009 89.4925 90.0009H109.89V50.0024H89.4901C78.4521 50.0024 69.5 58.9563 69.5 69.9993Z" fill="#FF3737"/>
<path d="M69.5 110C69.5 121.045 78.4521 130.002 89.4925 130.002H109.89V90.0032H89.4901C78.4521 90.0032 69.5 98.957 69.5 110Z" fill="#874FFF"/>
</g>
<defs>
<clipPath id="clip0_95_156">
<rect width="81" height="120" fill="white" transform="translate(69.5 50)"/>
</clipPath>
</defs>
</svg>
