<svg width="220" height="220" viewBox="0 0 220 220" fill="none" xmlns="http://www.w3.org/2000/svg">
<rect width="220" height="220" rx="64" fill="white"/>
<g clip-path="url(#clip0_96_592)">
<path d="M156.827 103.559C147.597 99.5853 139.521 94.1344 132.596 87.2124C125.674 80.2906 120.223 72.2111 116.249 62.9809C114.724 59.4434 113.498 55.8072 112.559 52.079C112.252 50.8601 111.159 50.0021 109.903 50.0021C108.647 50.0021 107.554 50.8601 107.247 52.079C106.308 55.8072 105.082 59.44 103.557 62.9809C99.5833 72.2111 94.1323 80.2906 87.2103 87.2124C80.2886 94.1344 72.209 99.5853 62.9789 103.559C59.4413 105.084 55.8051 106.31 52.0769 107.249C50.858 107.556 50 108.649 50 109.905C50 111.161 50.858 112.254 52.0769 112.561C55.8051 113.501 59.4379 114.726 62.9789 116.251C72.209 120.225 80.2852 125.676 87.2103 132.598C94.1356 139.519 99.5833 147.599 103.557 156.829C105.082 160.367 106.308 164.003 107.247 167.731C107.554 168.95 108.647 169.808 109.903 169.808C111.159 169.808 112.252 168.95 112.559 167.731C113.498 164.003 114.724 160.37 116.249 156.829C120.223 147.599 125.674 139.523 132.596 132.598C139.517 125.676 147.597 120.225 156.827 116.251C160.365 114.726 164.001 113.501 167.729 112.561C168.948 112.254 169.806 111.161 169.806 109.905C169.806 108.649 168.948 107.556 167.729 107.249C164.001 106.31 160.368 105.084 156.827 103.559Z" fill="white"/>
<mask id="mask0_96_592" style="mask-type:alpha" maskUnits="userSpaceOnUse" x="50" y="50" width="120" height="120">
<path d="M109.903 50C111.159 50 112.252 50.8581 112.558 52.0769C113.498 55.8051 114.724 59.4415 116.249 62.979C120.222 72.209 125.674 80.288 132.596 87.2098C139.521 94.1314 147.596 99.5833 156.826 103.557C160.367 105.082 164 106.307 167.728 107.247C168.947 107.553 169.805 108.646 169.805 109.903C169.805 111.159 168.947 112.252 167.728 112.558C164 113.498 160.364 114.724 156.826 116.249C147.596 120.222 139.517 125.674 132.596 132.596C125.674 139.521 120.222 147.596 116.249 156.826C114.724 160.367 113.498 164 112.558 167.728C112.252 168.947 111.159 169.805 109.903 169.805C108.646 169.805 107.553 168.947 107.247 167.728C106.307 164 105.082 160.364 103.557 156.826C99.5833 147.596 94.1347 139.517 87.2098 132.596C80.2845 125.674 72.209 120.222 62.979 116.249C59.4381 114.724 55.8051 113.498 52.0769 112.558C50.8581 112.252 50 111.159 50 109.903C50.0002 108.646 50.8581 107.553 52.0769 107.247C55.8051 106.307 59.4415 105.082 62.979 103.557C72.2092 99.5831 80.288 94.1316 87.2098 87.2098C94.1316 80.288 99.5831 72.2092 103.557 62.979C105.082 59.4381 106.307 55.8051 107.247 52.0769C107.553 50.8581 108.646 50.0002 109.903 50Z" fill="black"/>
<path d="M109.903 50C111.159 50 112.252 50.8581 112.558 52.0769C113.498 55.8051 114.724 59.4415 116.249 62.979C120.222 72.209 125.674 80.288 132.596 87.2098C139.521 94.1314 147.596 99.5833 156.826 103.557C160.367 105.082 164 106.307 167.728 107.247C168.947 107.553 169.805 108.646 169.805 109.903C169.805 111.159 168.947 112.252 167.728 112.558C164 113.498 160.364 114.724 156.826 116.249C147.596 120.222 139.517 125.674 132.596 132.596C125.674 139.521 120.222 147.596 116.249 156.826C114.724 160.367 113.498 164 112.558 167.728C112.252 168.947 111.159 169.805 109.903 169.805C108.646 169.805 107.553 168.947 107.247 167.728C106.307 164 105.082 160.364 103.557 156.826C99.5833 147.596 94.1347 139.517 87.2098 132.596C80.2845 125.674 72.209 120.222 62.979 116.249C59.4381 114.724 55.8051 113.498 52.0769 112.558C50.8581 112.252 50 111.159 50 109.903C50.0002 108.646 50.8581 107.553 52.0769 107.247C55.8051 106.307 59.4415 105.082 62.979 103.557C72.2092 99.5831 80.288 94.1316 87.2098 87.2098C94.1316 80.288 99.5831 72.2092 103.557 62.979C105.082 59.4381 106.307 55.8051 107.247 52.0769C107.553 50.8581 108.646 50.0002 109.903 50Z" fill="url(#paint0_linear_96_592)"/>
</mask>
<g mask="url(#mask0_96_592)">
<g filter="url(#filter0_f_96_592)">
<path d="M39.1833 143.663C53.0259 148.579 68.9362 139.361 74.7199 123.075C80.5035 106.789 73.9705 89.6012 60.1278 84.6853C46.2852 79.7693 30.3749 88.9867 24.5913 105.273C18.8076 121.559 25.3407 138.747 39.1833 143.663Z" fill="#FFE432"/>
</g>
<g filter="url(#filter1_f_96_592)">
<path d="M100.645 89.9666C119.663 89.9666 135.079 74.2112 135.079 54.7758C135.079 35.3404 119.663 19.585 100.645 19.585C81.6281 19.585 66.2116 35.3404 66.2116 54.7758C66.2116 74.2112 81.6281 89.9666 100.645 89.9666Z" fill="#FC413D"/>
</g>
<g filter="url(#filter2_f_96_592)">
<path d="M87.2632 202.508C107.115 201.537 122.189 179.903 120.932 154.185C119.675 128.468 102.562 108.407 82.7105 109.377C62.8587 110.348 47.7848 131.983 49.0419 157.7C50.2991 183.417 67.4113 203.478 87.2632 202.508Z" fill="#00B95C"/>
</g>
<g filter="url(#filter3_f_96_592)">
<path d="M87.2632 202.508C107.115 201.537 122.189 179.903 120.932 154.185C119.675 128.468 102.562 108.407 82.7105 109.377C62.8587 110.348 47.7848 131.983 49.0419 157.7C50.2991 183.417 67.4113 203.478 87.2632 202.508Z" fill="#00B95C"/>
</g>
<g filter="url(#filter4_f_96_592)">
<path d="M107.145 186.95C123.788 176.824 128.243 153.762 117.095 135.44C105.947 117.118 83.4186 110.474 66.776 120.6C50.1334 130.726 45.6789 153.788 56.8266 172.11C67.9744 190.432 90.5029 197.076 107.145 186.95Z" fill="#00B95C"/>
</g>
<g filter="url(#filter5_f_96_592)">
<path d="M174.414 129.373C193.12 129.373 208.284 114.77 208.284 96.757C208.284 78.7439 193.12 64.1414 174.414 64.1414C155.708 64.1414 140.544 78.7439 140.544 96.757C140.544 114.77 155.708 129.373 174.414 129.373Z" fill="#3186FF"/>
</g>
<g filter="url(#filter6_f_96_592)">
<path d="M25.8806 125.589C43.1041 138.687 68.2659 134.577 82.0809 116.411C95.896 98.2438 93.1329 72.8988 75.9094 59.8009C58.6859 46.7031 33.5241 50.8123 19.709 68.9791C5.89394 87.1459 8.65704 112.491 25.8806 125.589Z" fill="#FBBC04"/>
</g>
<g filter="url(#filter7_f_96_592)">
<path d="M114.134 144.948C134.692 159.083 161.943 155.145 175 136.154C188.057 117.162 181.976 90.3082 161.418 76.1739C140.859 62.0396 113.609 65.9772 100.552 84.9688C87.4948 103.96 93.5757 130.814 114.134 144.948Z" fill="#3186FF"/>
</g>
<g filter="url(#filter8_f_96_592)">
<path d="M151.509 45.687C156.739 52.798 150.018 66.6242 136.498 76.5686C122.977 86.5131 107.777 88.8099 102.547 81.6989C97.3162 74.5878 104.037 60.7616 117.557 50.8172C131.078 40.8728 146.278 38.5759 151.509 45.687Z" fill="#749BFF"/>
</g>
<g filter="url(#filter9_f_96_592)">
<path d="M108.573 79.7304C129.482 60.3355 136.659 34.076 124.602 21.0782C112.546 8.08031 85.822 13.2661 64.9127 32.661C44.0033 52.0558 36.8265 78.3153 48.8829 91.3132C60.9393 104.311 87.6634 99.1252 108.573 79.7304Z" fill="#FC413D"/>
</g>
<g filter="url(#filter10_f_96_592)">
<path d="M65.7106 149.394C78.1381 158.289 92.4058 159.64 97.5784 152.413C102.751 145.186 96.8698 132.117 84.4424 123.222C72.0149 114.327 57.7472 112.976 52.5746 120.203C47.4019 127.43 53.2832 140.499 65.7106 149.394Z" fill="#FFEE48"/>
</g>
</g>
</g>
<defs>
<filter id="filter0_f_96_592" x="17.5651" y="78.4437" width="64.1809" height="71.4607" filterUnits="userSpaceOnUse" color-interpolation-filters="sRGB">
<feFlood flood-opacity="0" result="BackgroundImageFix"/>
<feBlend mode="normal" in="SourceGraphic" in2="BackgroundImageFix" result="shape"/>
<feGaussianBlur stdDeviation="2.45965" result="effect1_foregroundBlur_96_592"/>
</filter>
<filter id="filter1_f_96_592" x="42.4295" y="-4.19724" width="116.432" height="117.946" filterUnits="userSpaceOnUse" color-interpolation-filters="sRGB">
<feFlood flood-opacity="0" result="BackgroundImageFix"/>
<feBlend mode="normal" in="SourceGraphic" in2="BackgroundImageFix" result="shape"/>
<feGaussianBlur stdDeviation="11.8911" result="effect1_foregroundBlur_96_592"/>
</filter>
<filter id="filter2_f_96_592" x="28.7516" y="89.1264" width="112.471" height="133.632" filterUnits="userSpaceOnUse" color-interpolation-filters="sRGB">
<feFlood flood-opacity="0" result="BackgroundImageFix"/>
<feBlend mode="normal" in="SourceGraphic" in2="BackgroundImageFix" result="shape"/>
<feGaussianBlur stdDeviation="10.1086" result="effect1_foregroundBlur_96_592"/>
</filter>
<filter id="filter3_f_96_592" x="28.7516" y="89.1264" width="112.471" height="133.632" filterUnits="userSpaceOnUse" color-interpolation-filters="sRGB">
<feFlood flood-opacity="0" result="BackgroundImageFix"/>
<feBlend mode="normal" in="SourceGraphic" in2="BackgroundImageFix" result="shape"/>
<feGaussianBlur stdDeviation="10.1086" result="effect1_foregroundBlur_96_592"/>
</filter>
<filter id="filter4_f_96_592" x="30.4701" y="95.6464" width="112.981" height="116.257" filterUnits="userSpaceOnUse" color-interpolation-filters="sRGB">
<feFlood flood-opacity="0" result="BackgroundImageFix"/>
<feBlend mode="normal" in="SourceGraphic" in2="BackgroundImageFix" result="shape"/>
<feGaussianBlur stdDeviation="10.1086" result="effect1_foregroundBlur_96_592"/>
</filter>
<filter id="filter5_f_96_592" x="121.332" y="44.9291" width="106.165" height="103.656" filterUnits="userSpaceOnUse" color-interpolation-filters="sRGB">
<feFlood flood-opacity="0" result="BackgroundImageFix"/>
<feBlend mode="normal" in="SourceGraphic" in2="BackgroundImageFix" result="shape"/>
<feGaussianBlur stdDeviation="9.60613" result="effect1_foregroundBlur_96_592"/>
</filter>
<filter id="filter6_f_96_592" x="-6.49678" y="34.7283" width="114.784" height="115.933" filterUnits="userSpaceOnUse" color-interpolation-filters="sRGB">
<feFlood flood-opacity="0" result="BackgroundImageFix"/>
<feBlend mode="normal" in="SourceGraphic" in2="BackgroundImageFix" result="shape"/>
<feGaussianBlur stdDeviation="8.70591" result="effect1_foregroundBlur_96_592"/>
</filter>
<filter id="filter7_f_96_592" x="78.1236" y="52.1437" width="119.304" height="116.835" filterUnits="userSpaceOnUse" color-interpolation-filters="sRGB">
<feFlood flood-opacity="0" result="BackgroundImageFix"/>
<feBlend mode="normal" in="SourceGraphic" in2="BackgroundImageFix" result="shape"/>
<feGaussianBlur stdDeviation="7.77473" result="effect1_foregroundBlur_96_592"/>
</filter>
<filter id="filter8_f_96_592" x="86.8576" y="27.6414" width="80.3397" height="72.1029" filterUnits="userSpaceOnUse" color-interpolation-filters="sRGB">
<feFlood flood-opacity="0" result="BackgroundImageFix"/>
<feBlend mode="normal" in="SourceGraphic" in2="BackgroundImageFix" result="shape"/>
<feGaussianBlur stdDeviation="6.95694" result="effect1_foregroundBlur_96_592"/>
</filter>
<filter id="filter9_f_96_592" x="31.281" y="2.16503" width="110.924" height="108.061" filterUnits="userSpaceOnUse" color-interpolation-filters="sRGB">
<feFlood flood-opacity="0" result="BackgroundImageFix"/>
<feBlend mode="normal" in="SourceGraphic" in2="BackgroundImageFix" result="shape"/>
<feGaussianBlur stdDeviation="5.87598" result="effect1_foregroundBlur_96_592"/>
</filter>
<filter id="filter10_f_96_592" x="36.1517" y="101.011" width="77.8494" height="70.594" filterUnits="userSpaceOnUse" color-interpolation-filters="sRGB">
<feFlood flood-opacity="0" result="BackgroundImageFix"/>
<feBlend mode="normal" in="SourceGraphic" in2="BackgroundImageFix" result="shape"/>
<feGaussianBlur stdDeviation="7.27253" result="effect1_foregroundBlur_96_592"/>
</filter>
<linearGradient id="paint0_linear_96_592" x1="84.0567" y1="130.16" x2="146.282" y2="77.6988" gradientUnits="userSpaceOnUse">
<stop stop-color="#4893FC"/>
<stop offset="0.27" stop-color="#4893FC"/>
<stop offset="0.776981" stop-color="#969DFF"/>
<stop offset="1" stop-color="#BD99FE"/>
</linearGradient>
<clipPath id="clip0_96_592">
<rect width="120" height="120" fill="white" transform="translate(50 50)"/>
</clipPath>
</defs>
</svg>
