<svg width="220" height="220" viewBox="0 0 220 220" fill="none" xmlns="http://www.w3.org/2000/svg">
<rect width="220" height="220" rx="64" fill="white"/>
<g clip-path="url(#clip0_95_155)">
<path d="M174.757 118.608L167.467 96.1874L153.069 51.7068C152.328 49.4276 149.112 49.4276 148.34 51.7068L133.931 96.1556H86.0587L71.6496 51.7068C70.909 49.4276 67.6929 49.4276 66.9206 51.7068L52.5431 96.1556L45.2539 118.608C44.598 120.643 45.3068 122.891 47.0524 124.163L110 169.99L172.948 124.163C174.683 122.901 175.423 120.654 174.757 118.608Z" fill="#EC672A"/>
<path d="M110.011 169.968L133.952 96.1555H86.0693L110.011 169.968Z" fill="#DD3E2A"/>
<path d="M109.989 169.968L86.0587 96.1555H52.5431L109.989 169.968Z" fill="#EC672A"/>
<path d="M52.5219 96.1768L45.2433 118.608C44.5873 120.643 45.2962 122.891 47.0418 124.163L109.989 169.989L52.5219 96.1768Z" fill="#F6A420"/>
<path d="M52.5325 96.1767H86.0798L71.6389 51.7279C70.8984 49.4488 67.6822 49.4488 66.9099 51.7279L52.5325 96.1767Z" fill="#DD3E2A"/>
<path d="M110.01 169.968L133.952 96.1555H167.499L110.01 169.968Z" fill="#EC672A"/>
<path d="M167.467 96.1768L174.757 118.597C175.413 120.633 174.704 122.88 172.958 124.152L110.01 169.958L167.467 96.1768Z" fill="#F6A420"/>
<path d="M167.489 96.1767H133.941L148.35 51.7279C149.091 49.4488 152.307 49.4488 153.079 51.7279L167.489 96.1767Z" fill="#DD3E2A"/>
</g>
<defs>
<clipPath id="clip0_95_155">
<rect width="130" height="120" fill="white" transform="translate(45 50)"/>
</clipPath>
</defs>
</svg>
