<svg width="220" height="220" viewBox="0 0 220 220" fill="none" xmlns="http://www.w3.org/2000/svg">
<rect width="220" height="220" rx="64" fill="white"/>
<g clip-path="url(#clip0_95_160)">
<path fill-rule="evenodd" clip-rule="evenodd" d="M130.475 58.2658C127.864 55.7203 124.363 54.296 120.719 54.296C117.074 54.296 113.574 55.7203 110.962 58.2658L58.9297 109.367C58.059 110.214 56.8926 110.688 55.6784 110.688C54.4642 110.688 53.2978 110.214 52.4271 109.367C52.0008 108.951 51.6619 108.455 51.4305 107.906C51.1992 107.358 51.08 106.768 51.08 106.173C51.08 105.577 51.1992 104.988 51.4305 104.439C51.6619 103.891 52.0008 103.394 52.4271 102.979L104.459 51.8782C108.812 47.6364 114.645 45.2629 120.719 45.2629C126.792 45.2629 132.626 47.6364 136.978 51.8782C139.497 54.331 141.399 57.3461 142.53 60.6768C143.662 64.0075 143.989 67.5592 143.486 71.041C147.009 70.5392 150.6 70.8542 153.982 71.9617C157.365 73.0691 160.448 74.9395 162.994 77.4286L163.265 77.6993C165.396 79.7752 167.09 82.2579 168.247 85.0007C169.404 87.7436 170 90.6908 170 93.6683C170 96.6458 169.404 99.5931 168.247 102.336C167.09 105.079 165.396 107.561 163.265 109.637L116.205 155.85C116.063 155.988 115.95 156.154 115.873 156.336C115.796 156.519 115.756 156.715 115.756 156.914C115.756 157.112 115.796 157.308 115.873 157.491C115.95 157.674 116.063 157.839 116.205 157.977L125.87 167.472C126.296 167.887 126.635 168.384 126.867 168.932C127.098 169.481 127.217 170.071 127.217 170.666C127.217 171.261 127.098 171.851 126.867 172.4C126.635 172.948 126.296 173.445 125.87 173.86C124.999 174.707 123.833 175.181 122.619 175.181C121.404 175.181 120.238 174.707 119.367 173.86L109.703 164.37C108.707 163.402 107.916 162.243 107.375 160.963C106.835 159.682 106.557 158.306 106.557 156.916C106.557 155.526 106.835 154.151 107.375 152.87C107.916 151.59 108.707 150.431 109.703 149.462L156.762 103.244C158.04 101.998 159.056 100.509 159.75 98.863C160.443 97.2173 160.801 95.4492 160.801 93.6629C160.801 91.8766 160.443 90.1085 159.75 88.4628C159.056 86.8172 158.04 85.3274 156.762 84.0815L156.492 83.8162C153.883 81.2734 150.387 79.8493 146.746 79.8462C143.106 79.8432 139.607 81.2615 136.994 83.8L98.2269 121.877L98.2161 121.887L97.6864 122.413C96.8154 123.262 95.6479 123.737 94.4323 123.737C93.2168 123.737 92.0492 123.262 91.1783 122.413C90.752 121.997 90.4132 121.501 90.1818 120.952C89.9504 120.404 89.8312 119.814 89.8312 119.219C89.8312 118.623 89.9504 118.034 90.1818 117.485C90.4132 116.937 90.752 116.44 91.1783 116.025L130.492 77.4124C131.766 76.1657 132.779 74.6761 133.47 73.0313C134.161 71.3866 134.516 69.62 134.514 67.8357C134.513 66.0514 134.155 64.2854 133.461 62.6418C132.767 60.9983 131.752 59.5104 130.475 58.2658Z" fill="black"/>
<path fill-rule="evenodd" clip-rule="evenodd" d="M123.973 71.041C124.399 70.6258 124.738 70.1293 124.969 69.5807C125.201 69.0322 125.32 68.4427 125.32 67.8472C125.32 67.2517 125.201 66.6623 124.969 66.1137C124.738 65.5651 124.399 65.0686 123.973 64.6534C123.102 63.8043 121.934 63.3291 120.719 63.3291C119.503 63.3291 118.336 63.8043 117.465 64.6534L78.9837 102.449C76.8523 104.524 75.158 107.007 74.0011 109.75C72.8442 112.493 72.2482 115.44 72.2482 118.418C72.2482 121.395 72.8442 124.342 74.0011 127.085C75.158 129.828 76.8523 132.311 78.9837 134.387C83.3368 138.627 89.1702 141 95.2431 141C101.316 141 107.149 138.627 111.503 134.387L149.989 96.5914C150.415 96.1763 150.754 95.6797 150.985 95.1311C151.217 94.5826 151.336 93.9931 151.336 93.3976C151.336 92.8021 151.217 92.2127 150.985 91.6641C150.754 91.1155 150.415 90.619 149.989 90.2038C149.118 89.3547 147.95 88.8795 146.735 88.8795C145.519 88.8795 144.352 89.3547 143.481 90.2038L105 127.999C102.388 130.544 98.8875 131.969 95.2431 131.969C91.5987 131.969 88.0981 130.544 85.4864 127.999C84.2082 126.753 83.1922 125.263 82.4985 123.618C81.8048 121.972 81.4474 120.204 81.4474 118.418C81.4474 116.631 81.8048 114.863 82.4985 113.217C83.1922 111.572 84.2082 110.082 85.4864 108.836L123.973 71.041Z" fill="black"/>
</g>
<defs>
<clipPath id="clip0_95_160">
<rect width="120" height="131" fill="white" transform="translate(50 44.5)"/>
</clipPath>
</defs>
</svg>
