<svg width="220" height="220" viewBox="0 0 220 220" fill="none" xmlns="http://www.w3.org/2000/svg">
<rect width="220" height="220" rx="64" fill="white"/>
<g clip-path="url(#clip0_95_151)">
<path d="M110 100.526H148C158.493 100.526 167 109.009 167 119.474V151.053C167 161.517 158.493 170 148 170C137.506 170 129 161.517 129 151.053V119.474C129 109.009 120.493 100.526 110 100.526Z" fill="url(#paint0_radial_95_151)"/>
<path d="M65.6663 113.158C65.6663 102.694 74.1729 94.2104 84.6663 94.2104H110C120.493 94.2104 129 102.694 129 113.158V151.053C129 161.517 137.506 170 148 170L97.3327 170C79.8438 170 65.6663 155.861 65.6663 138.421V113.158Z" fill="url(#paint1_radial_95_151)"/>
<path d="M65.6663 113.158C65.6663 102.694 74.1729 94.2104 84.6663 94.2104H110C120.493 94.2104 129 102.694 129 113.158V151.053C129 161.517 137.506 170 148 170L97.3327 170C79.8438 170 65.6663 155.861 65.6663 138.421V113.158Z" fill="url(#paint2_linear_95_151)" fill-opacity="0.7"/>
<path d="M65.6663 113.158C65.6663 102.694 74.1729 94.2104 84.6663 94.2104H110C120.493 94.2104 129 102.694 129 113.158V151.053C129 161.517 137.506 170 148 170L97.3327 170C79.8438 170 65.6663 155.861 65.6663 138.421V113.158Z" fill="url(#paint3_radial_95_151)" fill-opacity="0.7"/>
<path d="M144.833 94.2105C153.577 94.2105 160.666 87.1413 160.666 78.4211C160.666 69.7009 153.577 62.6316 144.833 62.6316C136.089 62.6316 129 69.7009 129 78.4211C129 87.1413 136.089 94.2105 144.833 94.2105Z" fill="url(#paint4_radial_95_151)"/>
<path d="M144.833 94.2105C153.577 94.2105 160.666 87.1413 160.666 78.4211C160.666 69.7009 153.577 62.6316 144.833 62.6316C136.089 62.6316 129 69.7009 129 78.4211C129 87.1413 136.089 94.2105 144.833 94.2105Z" fill="url(#paint5_radial_95_151)" fill-opacity="0.46"/>
<path d="M144.833 94.2105C153.577 94.2105 160.666 87.1413 160.666 78.4211C160.666 69.7009 153.577 62.6316 144.833 62.6316C136.089 62.6316 129 69.7009 129 78.4211C129 87.1413 136.089 94.2105 144.833 94.2105Z" fill="url(#paint6_radial_95_151)" fill-opacity="0.4"/>
<path d="M97.333 87.8947C107.826 87.8947 116.333 79.4117 116.333 68.9474C116.333 58.483 107.826 50 97.333 50C86.8396 50 78.333 58.483 78.333 68.9474C78.333 79.4117 86.8396 87.8947 97.333 87.8947Z" fill="url(#paint7_radial_95_151)"/>
<path d="M97.333 87.8947C107.826 87.8947 116.333 79.4117 116.333 68.9474C116.333 58.483 107.826 50 97.333 50C86.8396 50 78.333 58.483 78.333 68.9474C78.333 79.4117 86.8396 87.8947 97.333 87.8947Z" fill="url(#paint8_radial_95_151)" fill-opacity="0.6"/>
<path d="M97.333 87.8947C107.826 87.8947 116.333 79.4117 116.333 68.9474C116.333 58.483 107.826 50 97.333 50C86.8396 50 78.333 58.483 78.333 68.9474C78.333 79.4117 86.8396 87.8947 97.333 87.8947Z" fill="url(#paint9_radial_95_151)" fill-opacity="0.5"/>
<path d="M93.375 110H63.2917C57.6077 110 53 114.595 53 120.263V150.263C53 155.931 57.6077 160.526 63.2917 160.526H93.375C99.0589 160.526 103.667 155.931 103.667 150.263V120.263C103.667 114.595 99.0589 110 93.375 110Z" fill="url(#paint10_radial_95_151)"/>
<path d="M93.375 110H63.2917C57.6077 110 53 114.595 53 120.263V150.263C53 155.931 57.6077 160.526 63.2917 160.526H93.375C99.0589 160.526 103.667 155.931 103.667 150.263V120.263C103.667 114.595 99.0589 110 93.375 110Z" fill="url(#paint11_radial_95_151)" fill-opacity="0.7"/>
<path d="M89.3507 126.122H81.6016V149.699H75.0631V126.122H67.3137V120.827H89.3507V126.122Z" fill="white"/>
</g>
<defs>
<radialGradient id="paint0_radial_95_151" cx="0" cy="0" r="1" gradientUnits="userSpaceOnUse" gradientTransform="translate(166.356 107.391) scale(42.6816 105.061)">
<stop stop-color="#A98AFF"/>
<stop offset="0.14" stop-color="#8C75FF"/>
<stop offset="0.565" stop-color="#5F50E2"/>
<stop offset="0.9" stop-color="#3C2CB8"/>
</radialGradient>
<radialGradient id="paint1_radial_95_151" cx="0" cy="0" r="1" gradientTransform="matrix(38.5938 95.9999 -97.3573 38.9229 68.2392 89.1578)" gradientUnits="userSpaceOnUse">
<stop stop-color="#85C2FF"/>
<stop offset="0.69" stop-color="#7588FF"/>
<stop offset="1" stop-color="#6459FE"/>
</radialGradient>
<linearGradient id="paint2_linear_95_151" x1="105.546" y1="94.2104" x2="105.546" y2="170" gradientUnits="userSpaceOnUse">
<stop offset="0.801159" stop-color="#6864F6" stop-opacity="0"/>
<stop offset="1" stop-color="#5149DE"/>
</linearGradient>
<radialGradient id="paint3_radial_95_151" cx="0" cy="0" r="1" gradientTransform="matrix(-24.0978 55.7299 -44.8602 -19.2904 127.416 91.6841)" gradientUnits="userSpaceOnUse">
<stop stop-color="#BD96FF"/>
<stop offset="0.686685" stop-color="#BD96FF" stop-opacity="0"/>
</radialGradient>
<radialGradient id="paint4_radial_95_151" cx="0" cy="0" r="1" gradientUnits="userSpaceOnUse" gradientTransform="translate(144.833 73.9097) rotate(-90) scale(31.5789 39.9684)">
<stop offset="0.268201" stop-color="#6868F7"/>
<stop offset="1" stop-color="#3923B1"/>
</radialGradient>
<radialGradient id="paint5_radial_95_151" cx="0" cy="0" r="1" gradientTransform="matrix(17.3224 14.5215 -21.062 24.9855 131.747 70.6653)" gradientUnits="userSpaceOnUse">
<stop offset="0.270711" stop-color="#A1D3FF"/>
<stop offset="0.813393" stop-color="#A1D3FF" stop-opacity="0"/>
</radialGradient>
<radialGradient id="paint6_radial_95_151" cx="0" cy="0" r="1" gradientTransform="matrix(20.1403 -17.8683 43.954 49.2687 157.443 70.1114)" gradientUnits="userSpaceOnUse">
<stop stop-color="#E3ACFD"/>
<stop offset="0.816041" stop-color="#9FA2FF" stop-opacity="0"/>
</radialGradient>
<radialGradient id="paint7_radial_95_151" cx="0" cy="0" r="1" gradientUnits="userSpaceOnUse" gradientTransform="translate(97.333 63.5338) rotate(-90) scale(37.8947 47.9623)">
<stop offset="0.268201" stop-color="#8282FF"/>
<stop offset="1" stop-color="#3923B1"/>
</radialGradient>
<radialGradient id="paint8_radial_95_151" cx="0" cy="0" r="1" gradientTransform="matrix(20.7869 17.4258 -25.2743 29.9825 81.6301 59.6405)" gradientUnits="userSpaceOnUse">
<stop offset="0.270711" stop-color="#A1D3FF"/>
<stop offset="0.813393" stop-color="#A1D3FF" stop-opacity="0"/>
</radialGradient>
<radialGradient id="paint9_radial_95_151" cx="0" cy="0" r="1" gradientTransform="matrix(24.1683 -21.4419 52.7448 59.1225 112.466 58.9757)" gradientUnits="userSpaceOnUse">
<stop stop-color="#E3ACFD"/>
<stop offset="0.816041" stop-color="#9FA2FF" stop-opacity="0"/>
</radialGradient>
<radialGradient id="paint10_radial_95_151" cx="0" cy="0" r="1" gradientTransform="matrix(50.6666 50.5263 -50.6666 50.5263 53 110)" gradientUnits="userSpaceOnUse">
<stop offset="0.046875" stop-color="#688EFF"/>
<stop offset="0.946875" stop-color="#230F94"/>
</radialGradient>
<radialGradient id="paint11_radial_95_151" cx="0" cy="0" r="1" gradientUnits="userSpaceOnUse" gradientTransform="translate(78.3333 140.316) rotate(90) scale(35.3684 41.389)">
<stop offset="0.570647" stop-color="#6965F6" stop-opacity="0"/>
<stop offset="1" stop-color="#8F8FFF"/>
</radialGradient>
<clipPath id="clip0_95_151">
<rect width="114" height="120" fill="white" transform="translate(53 50)"/>
</clipPath>
</defs>
</svg>
