<svg width="220" height="220" viewBox="0 0 220 220" fill="none" xmlns="http://www.w3.org/2000/svg">
<rect width="220" height="220" rx="64" fill="white"/>
<path d="M64.389 145.409C61.8183 145.405 59.2955 144.712 57.0821 143.402C54.8688 142.091 53.0455 140.211 51.8014 137.957C50.5573 135.703 49.9376 133.156 50.0065 130.581C50.0755 128.006 50.8307 125.496 52.1937 123.312L78.1184 81.8244C80.1463 78.5794 83.3777 76.2745 87.1015 75.4169C88.9454 74.9922 90.8546 74.9356 92.7203 75.2504C94.586 75.5652 96.3715 76.2451 97.975 77.2513C99.5784 78.2576 100.968 79.5704 102.066 81.115C103.163 82.6595 103.945 84.4055 104.369 86.2532C104.793 88.1009 104.849 90.0141 104.535 91.8837C104.221 93.7533 103.543 95.5425 102.539 97.1493L76.608 138.637C75.3122 140.712 73.5106 142.423 71.3729 143.607C69.2353 144.792 66.8318 145.412 64.389 145.409Z" fill="#FF3D57"/>
<path d="M109.066 145.409C106.493 145.409 103.967 144.719 101.75 143.41C99.5337 142.102 97.7071 140.223 96.4601 137.968C95.2131 135.713 94.5914 133.164 94.6593 130.587C94.7273 128.01 95.4825 125.498 96.8466 123.312L122.789 81.8244C123.751 80.1329 125.044 78.6539 126.591 77.4764C128.139 76.2988 129.907 75.447 131.791 74.9723C133.676 74.4975 135.636 74.4096 137.555 74.7138C139.474 75.018 141.312 75.7081 142.958 76.7424C144.603 77.7768 146.023 79.1341 147.132 80.7327C148.241 82.3313 149.016 84.1382 149.41 86.0446C149.804 87.951 149.808 89.9175 149.424 91.8259C149.04 93.7343 148.274 95.5451 147.174 97.1493L121.279 138.637C119.983 140.712 118.181 142.422 116.044 143.607C113.906 144.792 111.508 145.412 109.066 145.409Z" fill="#FFCB00"/>
<path d="M153.731 145.403C161.699 145.403 168.159 139.092 168.159 131.307C168.159 123.522 161.699 117.21 153.731 117.21C145.762 117.21 139.302 123.522 139.302 131.307C139.302 139.092 145.762 145.403 153.731 145.403Z" fill="#00D647"/>
</svg>
