<svg width="220" height="220" viewBox="0 0 220 220" fill="none" xmlns="http://www.w3.org/2000/svg">
<rect width="220" height="220" rx="64" fill="white"/>
<path d="M76.0954 125.429C76.0954 132.191 70.5715 137.714 63.8096 137.714C57.0477 137.714 51.5239 132.191 51.5239 125.429C51.5239 118.667 57.0477 113.143 63.8096 113.143H76.0954V125.429Z" fill="#E01E5A"/>
<path d="M82.2859 125.429C82.2859 118.667 87.8097 113.143 94.5716 113.143C101.334 113.143 106.857 118.667 106.857 125.429V156.191C106.857 162.953 101.334 168.476 94.5716 168.476C87.8097 168.476 82.2859 162.953 82.2859 156.191V125.429Z" fill="#E01E5A"/>
<path d="M94.5716 76.0954C87.8097 76.0954 82.2859 70.5715 82.2859 63.8096C82.2859 57.0477 87.8097 51.5239 94.5716 51.5239C101.334 51.5239 106.857 57.0477 106.857 63.8096V76.0954H94.5716Z" fill="#36C5F0"/>
<path d="M94.5715 82.2859C101.333 82.2859 106.857 87.8097 106.857 94.5716C106.857 101.334 101.333 106.857 94.5715 106.857H63.8096C57.0477 106.857 51.5239 101.334 51.5239 94.5716C51.5239 87.8097 57.0477 82.2859 63.8096 82.2859H94.5715Z" fill="#36C5F0"/>
<path d="M143.905 94.5716C143.905 87.8097 149.429 82.2859 156.191 82.2859C162.953 82.2859 168.476 87.8097 168.476 94.5716C168.476 101.334 162.953 106.857 156.191 106.857H143.905V94.5716Z" fill="#2EB67D"/>
<path d="M137.714 94.5715C137.714 101.333 132.191 106.857 125.429 106.857C118.667 106.857 113.143 101.333 113.143 94.5715V63.8096C113.143 57.0477 118.667 51.5239 125.429 51.5239C132.191 51.5239 137.714 57.0477 137.714 63.8096V94.5715Z" fill="#2EB67D"/>
<path d="M125.429 143.905C132.191 143.905 137.714 149.429 137.714 156.191C137.714 162.953 132.191 168.476 125.429 168.476C118.667 168.476 113.143 162.953 113.143 156.191V143.905H125.429Z" fill="#ECB22E"/>
<path d="M125.429 137.714C118.667 137.714 113.143 132.191 113.143 125.429C113.143 118.667 118.667 113.143 125.429 113.143H156.191C162.953 113.143 168.476 118.667 168.476 125.429C168.476 132.191 162.953 137.714 156.191 137.714H125.429Z" fill="#ECB22E"/>
</svg>
