<svg width="220" height="220" viewBox="0 0 220 220" fill="none" xmlns="http://www.w3.org/2000/svg">
<rect width="220" height="220" rx="64" fill="white"/>
<path d="M53.4295 93.1818C53.4295 93.1818 50.5888 91.1313 53.9976 88.3935L61.9396 81.2822C61.9396 81.2822 64.2121 78.8881 66.6148 80.974L139.904 136.537V163.181C139.904 163.181 139.868 167.364 134.507 166.902L53.4295 93.1818Z" fill="#2489CA"/>
<path d="M72.3199 110.356L53.4295 127.553C53.4295 127.553 51.4884 128.999 53.4295 131.583L62.2 139.571C62.2 139.571 64.2832 141.811 67.3606 139.263L87.3872 124.057L72.3199 110.356Z" fill="#1070B3"/>
<path d="M105.485 110.498L140.129 84.0082L139.904 57.5068C139.904 57.5068 138.424 51.723 133.489 54.7334L87.3872 96.7493L105.485 110.498Z" fill="#0877B9"/>
<path d="M134.507 166.938C136.519 169 138.957 168.324 138.957 168.324L165.955 155.003C169.411 152.644 168.926 149.717 168.926 149.717V70.165C168.926 66.6686 165.351 65.4597 165.351 65.4597L141.951 54.1646C136.838 51.0001 133.489 54.7335 133.489 54.7335C133.489 54.7335 137.797 51.6282 139.904 57.5069V162.695C139.904 163.418 139.75 164.129 139.442 164.769C138.827 166.013 137.489 167.175 134.282 166.689L134.507 166.938Z" fill="#3C99D4"/>
</svg>
