<svg width="220" height="220" viewBox="0 0 220 220" fill="none" xmlns="http://www.w3.org/2000/svg">
<rect width="220" height="220" rx="64" fill="white"/>
<path d="M75.9575 50.1193H143.437C157.889 50.1193 169.593 61.8169 169.593 76.2598V143.7C169.593 158.143 157.889 169.841 143.437 169.841H75.9575C61.5061 169.841 49.8016 158.143 49.8016 143.7V76.2598C49.8016 61.8169 61.5061 50.1193 75.9575 50.1193Z" fill="url(#paint0_linear_112_108)"/>
<path d="M141.407 56.5651H77.9878C65.9251 56.5651 56.1316 66.3529 56.1316 78.4086V141.791C56.1316 153.846 65.9251 163.634 77.9878 163.634H141.407C153.47 163.634 163.263 153.846 163.263 141.791V78.2892C163.263 66.2335 153.47 56.5651 141.407 56.5651ZM161.472 142.029C161.472 153.011 152.634 161.844 141.646 161.844H77.749C66.8805 161.844 57.9231 153.011 57.9231 142.029V78.0505C57.9231 67.069 66.7611 58.2362 77.749 58.2362H141.765C152.634 58.2362 161.591 67.069 161.591 78.0505V142.029H161.472Z" fill="white"/>
<path d="M109.877 60.8621C82.8846 60.8621 60.9089 82.8249 60.9089 109.801C60.9089 136.777 82.8846 158.74 109.877 158.74C136.988 158.74 158.844 136.777 158.844 109.801C158.844 82.8249 136.868 60.8621 109.877 60.8621ZM109.877 158.024C83.2429 158.024 61.6255 136.419 61.6255 109.801C61.6255 83.183 83.2429 61.5782 109.877 61.5782C136.51 61.5782 158.128 83.183 158.128 109.801C158.128 136.419 136.51 158.024 109.877 158.024Z" fill="#69C5F3"/>
<path d="M109.876 70.8885C88.2591 70.8885 70.8218 88.3156 70.8218 109.92C70.8218 131.525 88.2591 148.833 109.876 148.833C131.494 148.833 148.931 131.406 148.931 109.801C148.931 88.1962 131.374 70.8885 109.876 70.8885ZM109.876 147.997C88.7368 147.997 71.6579 130.928 71.6579 109.801C71.6579 88.6737 88.7368 71.6047 109.876 71.6047C131.016 71.6047 148.095 88.6737 148.095 109.801C148.095 130.928 130.897 147.997 109.876 147.997Z" fill="#68C5F4"/>
<path d="M72.4939 118.753H147.02C150.126 118.753 152.514 121.26 152.514 124.244C152.514 127.347 150.006 129.735 147.02 129.735H72.4939C69.3887 129.735 67 127.228 67 124.244C66.8806 121.26 69.3887 118.753 72.4939 118.753Z" fill="white"/>
<path d="M72.2551 119.828H147.02C149.409 119.828 151.439 121.737 151.439 124.244V124.363C151.439 126.751 149.528 128.78 147.02 128.78H72.2551C69.8664 128.78 67.836 126.87 67.836 124.363V124.125C67.9555 121.737 69.8664 119.828 72.2551 119.828Z" fill="#0A93E9"/>
<path d="M70.4635 128.302H148.931L149.528 127.944H69.8664L70.4635 128.302Z" fill="#1694EA"/>
<path d="M68.6721 126.87H150.603L150.842 126.512H68.4332L68.6721 126.87Z" fill="#319DEC"/>
<path d="M67.9555 124.602H151.439V124.125H67.9555V124.602Z" fill="#65B1EE"/>
<path d="M68.7915 121.618H150.723L150.842 121.857L150.962 122.095H68.5526L68.672 121.857L68.7915 121.618Z" fill="#8EC6F3"/>
<path d="M70.583 120.186H148.931L149.289 120.305L149.648 120.544H69.8664L70.2247 120.305L70.583 120.186Z" fill="#95CAF3"/>
<path d="M144.87 119.828H144.273C144.273 119.828 146.304 121.26 146.304 124.483C146.304 127.467 144.273 128.78 144.273 128.78H144.87C144.87 128.78 146.901 127.825 146.901 124.483C146.901 120.902 144.87 119.828 144.87 119.828Z" fill="url(#paint1_linear_112_108)"/>
<path d="M139.138 119.828H138.541C138.541 119.828 140.332 121.499 140.332 124.483C140.332 127.109 138.541 128.78 138.541 128.78H139.138C139.138 128.78 140.929 127.467 140.929 124.483C140.81 121.26 139.138 119.828 139.138 119.828Z" fill="url(#paint2_linear_112_108)"/>
<path d="M109.399 119.828H109.996V128.78H109.399V119.828Z" fill="url(#paint3_linear_112_108)"/>
<path d="M103.547 119.828H104.144C104.144 119.828 103.905 122.095 103.905 124.483C103.905 126.631 104.144 128.78 104.144 128.78H103.547C103.547 128.78 103.308 126.631 103.308 124.483C103.308 122.095 103.547 119.828 103.547 119.828Z" fill="url(#paint4_linear_112_108)"/>
<path d="M97.8137 119.828H98.4109C98.4109 119.828 97.8137 122.095 97.8137 124.483C97.8137 126.631 98.4109 128.78 98.4109 128.78H97.8137C97.8137 128.78 97.2166 126.631 97.2166 124.483C97.2166 122.095 97.8137 119.828 97.8137 119.828Z" fill="url(#paint5_linear_112_108)"/>
<path d="M91.9615 119.828H92.5587C92.5587 119.828 91.7227 122.095 91.7227 124.483C91.7227 126.631 92.5587 128.78 92.5587 128.78H91.9615C91.9615 128.78 91.1255 126.631 91.1255 124.483C91.1255 122.095 91.9615 119.828 91.9615 119.828Z" fill="url(#paint6_linear_112_108)"/>
<path d="M86.1093 119.828H86.7065C86.7065 119.828 85.5121 121.737 85.5121 124.483C85.5121 126.87 86.7065 128.78 86.7065 128.78H86.1093C86.1093 128.78 84.915 126.87 84.915 124.483C84.915 121.737 86.1093 119.828 86.1093 119.828Z" fill="url(#paint7_linear_112_108)"/>
<path d="M80.2571 119.828H80.8542C80.8542 119.828 79.0627 121.499 79.0627 124.483C79.0627 127.109 80.8542 128.78 80.8542 128.78H80.2571C80.2571 128.78 78.4656 127.467 78.4656 124.483C78.585 121.26 80.2571 119.828 80.2571 119.828Z" fill="url(#paint8_linear_112_108)"/>
<path d="M74.5243 119.828H75.1215C75.1215 119.828 73.0911 121.26 73.0911 124.483C73.0911 127.467 75.1215 128.78 75.1215 128.78H74.5243C74.5243 128.78 72.4939 127.825 72.4939 124.483C72.4939 120.902 74.5243 119.828 74.5243 119.828Z" fill="url(#paint9_linear_112_108)"/>
<path d="M107.368 74.3501L144.632 138.806C146.184 141.432 145.229 144.775 142.601 146.326C139.974 147.878 136.63 146.923 135.077 144.297L97.8138 79.8409C96.2611 77.2149 97.2166 73.8727 99.8441 72.321C102.472 70.7692 105.816 71.7242 107.368 74.3501Z" fill="white"/>
<path d="M106.413 74.8275L143.796 139.522C144.99 141.552 144.273 144.297 142.243 145.491L142.004 145.61C139.974 146.804 137.227 146.087 136.032 144.058L98.6498 79.244C97.4555 77.2148 98.1721 74.4694 100.202 73.2758L100.322 73.1564C102.472 71.9628 105.219 72.679 106.413 74.8275Z" fill="url(#paint10_linear_112_108)"/>
<path d="M98.0526 77.4535L137.227 145.371L137.466 145.491L137.704 145.61L137.943 145.729L98.0526 76.7373V77.4535Z" fill="url(#paint11_linear_112_108)"/>
<path d="M98.4109 75.1856L139.376 146.087H139.854L98.6498 74.8275L98.5303 75.0662L98.4109 75.1856Z" fill="url(#paint12_linear_112_108)"/>
<path d="M100.083 73.3952L141.885 145.61L142.243 145.371L100.441 73.1565L100.083 73.3952Z" fill="url(#paint13_linear_112_108)"/>
<path d="M103.069 72.6791L143.915 143.462L143.796 143.7L143.676 143.939L102.472 72.5597H102.711L103.069 72.6791Z" fill="url(#paint14_linear_112_108)"/>
<path d="M105.219 73.3953L144.393 141.194V141.91L104.502 73.0372L104.741 73.1566L104.98 73.276L105.219 73.3953Z" fill="url(#paint15_linear_112_108)"/>
<path d="M142.601 137.374L142.362 136.897C142.362 136.897 142.123 139.284 139.496 140.955C136.988 142.507 134.719 141.432 134.719 141.432L134.957 141.91C134.957 141.91 136.868 143.223 139.735 141.432C142.601 139.761 142.601 137.374 142.601 137.374ZM139.615 132.361L139.377 131.883C139.377 131.883 138.779 134.271 136.271 135.703C134.002 137.135 131.733 136.419 131.733 136.419L131.972 136.897C131.972 136.897 134.002 137.732 136.63 136.18C139.257 134.629 139.615 132.361 139.615 132.361Z" fill="#3C98EA"/>
<path d="M136.749 127.348L136.51 126.87C136.51 126.87 135.435 128.899 133.166 130.212C131.136 131.406 128.866 131.406 128.866 131.406L129.105 131.883C129.105 131.883 131.255 131.883 133.405 130.69C135.674 129.377 136.749 127.348 136.749 127.348Z" fill="#4CA4ED"/>
<path d="M133.883 122.334L133.644 121.857C133.644 121.857 132.091 123.886 130.061 124.96C128.15 126.035 125.881 126.393 125.881 126.393L126.119 126.87C126.119 126.87 128.389 126.512 130.3 125.438C132.211 124.363 133.883 122.334 133.883 122.334Z" fill="#4DA7EE"/>
<path d="M122.059 102.042L122.298 102.52C122.298 102.52 120.267 103.475 118.237 104.549C116.326 105.623 114.654 107.056 114.654 107.056L114.415 106.578C114.415 106.578 116.206 105.146 117.998 104.072C120.028 102.997 122.059 102.042 122.059 102.042Z" fill="url(#paint16_linear_112_108)"/>
<path d="M119.192 97.0292L119.431 97.5066C119.431 97.5066 117.162 98.2228 115.251 99.4164C113.34 100.491 111.787 102.162 111.787 102.162L111.549 101.684C111.549 101.684 113.101 100.013 115.012 98.939C116.923 97.626 119.192 97.0292 119.192 97.0292Z" fill="url(#paint17_linear_112_108)"/>
<path d="M113.818 93.0901C115.37 92.6127 116.565 92.3739 116.565 92.3739L116.326 91.8965C116.326 91.8965 115.251 92.0158 114.057 92.4933C113.34 92.732 113.221 93.3288 113.818 93.0901Z" fill="#9DD4F7"/>
<path d="M110.474 81.9894L110.713 82.4668C110.713 82.4668 108.443 81.87 105.816 83.3023C103.547 84.7347 103.069 87.0026 103.069 87.0026L102.83 86.5252C102.83 86.5252 103.069 84.496 105.577 82.9443C108.204 81.2732 110.474 81.9894 110.474 81.9894Z" fill="url(#paint18_linear_112_108)"/>
<path d="M107.607 76.8569L107.966 77.3343C107.966 77.3343 105.577 76.3794 102.83 77.9311C100.202 79.6022 100.202 81.8701 100.202 81.8701L99.8441 81.3927C99.8441 81.3927 99.6053 79.3635 102.472 77.573C105.457 75.7826 107.607 76.8569 107.607 76.8569Z" fill="url(#paint19_linear_112_108)"/>
<path d="M99.6053 118.753C109.996 100.849 121.939 80.0796 121.939 80.0796C123.492 77.4536 122.536 74.1115 119.909 72.5597C117.281 71.008 113.937 71.9629 112.385 74.5889C112.385 74.5889 97.8138 99.894 86.8259 118.753H99.6053ZM93.1559 129.735C88.1397 138.329 84.6761 144.536 84.6761 144.536C83.1235 147.162 79.7794 148.117 77.1518 146.565C74.5243 145.013 73.5688 141.671 75.1215 139.045C75.1215 139.045 77.1518 135.345 80.3765 129.854C84.4372 129.735 91.8421 129.735 93.1559 129.735Z" fill="white"/>
<path d="M98.2915 118.753C108.802 100.61 120.984 79.4828 120.984 79.4828C122.178 77.4536 121.462 74.7083 119.431 73.5146L119.312 73.3953C117.281 72.2016 114.534 72.9178 113.34 74.947C113.34 74.947 99.0081 99.7746 88.0202 118.753H98.2915ZM91.9615 129.735C87.1842 138.09 83.7206 144.058 83.7206 144.058C82.5263 146.088 79.8988 146.804 77.749 145.61H77.5101C75.4797 144.416 74.7631 141.79 75.9575 139.642C75.9575 139.642 78.2267 135.703 81.6903 129.735H91.9615Z" fill="url(#paint20_linear_112_108)"/>
<path d="M97.9332 118.753L121.7 77.6923V76.9761C121.7 76.9761 108.563 99.7745 97.5749 118.753H97.9332ZM91.4838 129.735L82.4069 145.491L82.0486 145.729L81.6903 145.849C81.6903 145.849 85.751 138.806 91.0061 129.735H91.4838Z" fill="url(#paint21_linear_112_108)"/>
<path d="M96.1417 118.753L121.223 75.4245L121.103 75.1857L120.984 74.947C120.984 74.947 107.249 98.7003 95.7834 118.634L96.1417 118.753ZM89.8117 129.735L80.2571 146.207H79.7794C79.7794 146.207 83.8401 139.165 89.334 129.615C89.5729 129.735 89.8117 129.735 89.8117 129.735Z" fill="url(#paint22_linear_112_108)"/>
<path d="M93.5142 118.753C105.338 98.3422 119.551 73.634 119.551 73.634L119.192 73.3953L92.917 118.753H93.5142ZM87.0648 129.854C81.8097 139.045 77.8684 145.849 77.8684 145.849L77.5101 145.61C77.5101 145.61 81.332 138.926 86.5871 129.854C86.8259 129.735 86.7065 129.735 87.0648 129.854Z" fill="url(#paint23_linear_112_108)"/>
<path d="M90.6478 118.753C102.472 98.3422 117.162 72.7985 117.162 72.7985H116.684C116.684 72.7985 101.994 98.2229 90.1701 118.753H90.6478ZM83.7207 129.735C78.9433 137.971 75.7186 143.581 75.7186 143.581L75.8381 143.82L75.9575 144.058C75.9575 144.058 79.4211 138.09 84.3178 129.735H83.7207Z" fill="url(#paint24_linear_112_108)"/>
<path d="M88.8563 118.753L115.132 73.2758L114.893 73.3951L114.654 73.5145L114.534 73.6338C114.534 73.6338 99.9636 98.8195 88.498 118.753H88.8563ZM82.5263 129.735C78.3462 137.016 75.3603 142.148 75.3603 142.148V141.194C75.3603 141.194 77.9878 136.658 82.0486 129.615C82.2874 129.735 82.2874 129.735 82.5263 129.735Z" fill="url(#paint25_linear_112_108)"/>
<path d="M112.146 76.8569L111.907 77.3343C111.907 77.3343 114.057 76.2601 116.923 77.8118C119.551 79.2441 119.67 81.7508 119.67 81.7508L119.909 81.2733C119.909 81.2733 120.148 79.0054 117.162 77.3343C114.176 75.6632 112.146 76.8569 112.146 76.8569Z" fill="url(#paint26_linear_112_108)"/>
<path d="M109.279 81.9894L109.04 82.4669C109.04 82.4669 111.429 81.7507 113.937 83.1831C116.326 84.496 116.804 86.764 116.804 86.764L117.042 86.2865C117.042 86.2865 116.804 84.138 114.176 82.7056C111.429 81.1539 109.279 81.9894 109.279 81.9894Z" fill="url(#paint27_linear_112_108)"/>
<path d="M106.293 87.0027L106.055 87.4801C106.055 87.4801 108.204 87.3608 110.593 88.7931C112.743 89.9868 113.818 91.8966 113.818 91.8966L114.057 91.4191C114.057 91.4191 112.982 89.5093 110.832 88.3157C108.563 87.0027 106.293 87.0027 106.293 87.0027Z" fill="url(#paint28_linear_112_108)"/>
<path d="M103.427 92.1353L103.188 92.6127C103.188 92.6127 105.577 92.9708 107.607 94.1644C109.518 95.2387 110.951 97.0292 110.951 97.0292L111.19 96.5517C111.19 96.5517 109.757 94.7612 107.846 93.687C105.816 92.4933 103.427 92.1353 103.427 92.1353Z" fill="url(#paint29_linear_112_108)"/>
<path d="M100.441 97.1486L100.202 97.626C100.202 97.626 102.472 98.2228 104.502 99.4165C106.413 100.491 107.966 102.042 107.966 102.042L108.204 101.565C108.204 101.565 106.652 100.013 104.741 98.939C102.83 97.8647 100.441 97.1486 100.441 97.1486Z" fill="url(#paint30_linear_112_108)"/>
<path d="M97.5749 102.162L97.2166 102.639C97.2166 102.639 99.3664 103.475 101.397 104.668C103.308 105.743 104.98 107.056 104.98 107.056L105.219 106.578C105.219 106.578 103.547 105.265 101.636 104.191C99.7247 103.117 97.5749 102.162 97.5749 102.162Z" fill="url(#paint31_linear_112_108)"/>
<path d="M94.3502 107.772L94.5891 107.294L102.352 111.711L102.113 112.188L94.3502 107.772Z" fill="url(#paint32_linear_112_108)"/>
<path d="M91.4838 112.904L91.7227 112.427C91.7227 112.427 93.6336 113.859 95.664 114.934C97.5749 116.008 99.4859 116.843 99.4859 116.843L99.247 117.202C99.247 117.202 97.2166 116.366 95.3057 115.292C93.2753 114.217 91.4838 112.904 91.4838 112.904Z" fill="url(#paint33_linear_112_108)"/>
<path d="M89.5729 118.753C88.9757 118.276 88.6174 117.918 88.6174 117.918L88.8563 117.44C88.8563 117.44 89.5729 118.037 90.5284 118.753H89.5729Z" fill="#73B9F1"/>
<path d="M84.915 129.735C85.3927 130.093 85.8705 130.451 86.4676 130.809C88.6174 132.003 90.7672 131.883 90.7672 131.883L90.5284 132.361C90.5284 132.361 88.3786 132.48 86.2288 131.286C85.3927 130.809 84.6761 130.212 84.1984 129.735H84.915Z" fill="url(#paint34_linear_112_108)"/>
<path d="M79.7794 133.077L80.0182 132.599C80.0182 132.599 80.6154 134.987 83.2429 136.419C85.6316 137.732 87.7814 137.016 87.7814 137.016L87.5425 137.493C87.5425 137.493 85.6316 138.329 83.0041 136.897C80.2571 135.345 79.7794 133.077 79.7794 133.077Z" fill="url(#paint35_linear_112_108)"/>
<path d="M76.7935 138.21L77.0324 137.732C77.0324 137.732 77.2713 140.239 80.1377 141.79C82.7652 143.223 84.7956 142.149 84.7956 142.149L84.4373 142.626C84.4373 142.626 82.6458 143.939 79.7794 142.268C76.7935 140.597 76.7935 138.21 76.7935 138.21Z" fill="url(#paint36_linear_112_108)"/>
<path d="M115.49 169.96L166.607 62.6526L153.709 56.5651L100.441 168.17C100.441 168.17 102.113 169.005 104.263 169.96H115.49Z" fill="url(#paint37_linear_112_108)"/>
<path d="M145.706 50.1193L169.593 61.4588V95.7161C161.352 91.7771 106.174 65.5171 106.174 65.5171C106.174 65.5171 109.996 57.5198 113.579 50.1193H145.706Z" fill="url(#paint38_radial_112_108)"/>
<path d="M86.4676 165.186C86.1093 165.902 85.5122 166.737 85.6316 168.05C85.751 172.944 93.753 177.48 98.4109 177.48C101.636 177.48 102.711 176.167 103.905 173.78C105.099 171.393 87.7814 162.321 86.4676 165.186Z" fill="url(#paint39_radial_112_108)"/>
<path d="M141.526 63.6074C141.526 63.6074 153.828 66.5915 154.783 67.427C155.739 68.2626 153.231 73.0371 152.753 73.7533C148.812 78.5278 136.51 104.907 136.51 104.907L125.164 98.4615C125.164 98.4615 135.316 79.6021 138.899 72.9178C141.168 68.382 141.526 63.6074 141.526 63.6074Z" fill="url(#paint40_linear_112_108)"/>
<path d="M169.951 57.4006C172.101 58.9523 174.968 58.5942 177.237 58.2361C178.789 57.9974 176.401 60.2653 173.773 65.5173C171.146 70.7693 171.265 71.1274 170.907 70.7693C170.549 70.4112 158.725 63.7268 159.083 63.13C159.561 62.5332 161.472 49.5226 162.427 49.8807C165.891 50.7162 166.488 54.8939 169.951 57.4006Z" fill="url(#paint41_linear_112_108)"/>
<path d="M151.559 72.0823C152.395 70.7693 156.217 62.6526 162.308 62.6526C165.055 62.6526 170.31 69.5757 170.787 70.5306C171.146 71.3661 169.951 74.7083 169.354 73.1566C168.638 71.3661 165.652 67.5465 162.427 67.5465C159.202 67.5465 154.783 71.2468 153.709 72.5597C152.634 73.7534 150.723 73.3953 151.559 72.0823Z" fill="url(#paint42_linear_112_108)"/>
<path d="M151.32 71.6048C151.917 70.6499 154.664 66.4722 155.978 65.1592C157.291 63.8462 160.636 60.3846 163.502 59.9072C166.368 59.4297 169.354 65.2785 168.399 66.4722C167.682 67.3077 166.488 66.3528 165.055 65.1592C163.621 64.0849 162.666 61.9363 158.128 65.3979C156.575 66.5915 155.022 67.5464 151.439 72.679C150.484 73.992 150.723 72.5597 151.32 71.6048Z" fill="url(#paint43_linear_112_108)"/>
<path d="M136.51 106.459C136.988 105.504 137.585 104.072 136.271 102.997C134.838 101.923 128.15 98.3422 126.955 98.1035C125.761 97.8648 124.806 98.1035 124.328 98.939C123.85 99.7746 87.1842 162.56 86.4676 164.35C85.751 166.141 85.6316 167.454 86.7065 167.812C87.7814 168.17 100.083 174.019 101.277 175.332C102.472 176.645 103.069 175.212 103.547 174.496C105.816 171.631 135.913 107.414 136.51 106.459Z" fill="url(#paint44_linear_112_108)"/>
<path d="M152.156 71.366C152.753 70.5305 154.186 68.1432 155.978 65.9947C157.172 64.5623 163.621 61.4588 165.055 56.4456C165.891 53.7002 164.577 50.9549 162.785 49.7612C156.694 46.061 146.184 40.2122 130.777 40.2122C120.387 40.2122 115.968 43.6737 115.968 43.6737H121.223L139.496 50.8355L141.765 60.3846C141.765 60.3846 142.004 63.6074 140.929 67.3077C140.213 70.2917 139.974 72.0822 138.899 75.0663C139.735 75.4244 141.646 74.1114 143.796 74.7082C145.706 75.1856 146.901 77.8116 148.215 76.2599C150.484 73.2758 151.2 72.679 152.156 71.366Z" fill="url(#paint45_linear_112_108)"/>
<path d="M141.407 63.9654C140.451 55.1326 138.302 46.7771 115.848 46.8965C117.281 45.4641 120.745 44.0318 120.745 44.0318L115.848 43.6737C115.848 43.6737 116.565 43.0769 117.998 42.9575C131.136 41.8832 142.84 44.6286 142.004 61.6975C141.885 64.4429 141.646 65.6365 141.407 63.9654Z" fill="url(#paint46_linear_112_108)"/>
<path d="M115.848 46.8966C117.401 46.2998 119.551 45.9417 123.611 46.1804C128.628 46.4191 134.957 48.329 137.585 50.7162C138.899 51.9099 138.779 50.9549 137.346 49.4032C133.644 45.1061 128.03 44.1512 120.745 44.0319C119.909 43.9125 117.162 45.4642 115.848 46.8966Z" fill="url(#paint47_linear_112_108)"/>
<path d="M177.476 58.2361L184.044 61.5783C184.044 61.5783 181.536 64.9204 179.506 68.7401C177.356 72.7984 175.923 77.2149 175.923 77.2149L169.593 73.3952C169.593 73.3952 171.146 69.0982 173.415 64.9204C175.206 61.4589 177.476 58.2361 177.476 58.2361Z" fill="url(#paint48_linear_112_108)"/>
<path d="M184.045 61.5782C184.522 61.8169 182.97 65.5172 180.7 69.8143C178.431 74.1114 176.281 77.4535 175.923 77.2148C175.445 76.9761 176.998 73.2758 179.267 68.9787C181.417 64.6816 183.567 61.3395 184.045 61.5782Z" fill="#BFC0D0"/>
<defs>
<linearGradient id="paint0_linear_112_108" x1="109.694" y1="169.918" x2="109.694" y2="50.1002" gradientUnits="userSpaceOnUse">
<stop stop-color="#1578E4"/>
<stop offset="1" stop-color="#00C3F2"/>
</linearGradient>
<linearGradient id="paint1_linear_112_108" x1="145.631" y1="128.739" x2="145.631" y2="119.808" gradientUnits="userSpaceOnUse">
<stop stop-color="#1492E7"/>
<stop offset="1" stop-color="#DBEDFB"/>
</linearGradient>
<linearGradient id="paint2_linear_112_108" x1="139.666" y1="128.739" x2="139.666" y2="119.808" gradientUnits="userSpaceOnUse">
<stop stop-color="#1492E7"/>
<stop offset="1" stop-color="#DBEDFB"/>
</linearGradient>
<linearGradient id="paint3_linear_112_108" x1="109.694" y1="128.739" x2="109.694" y2="119.808" gradientUnits="userSpaceOnUse">
<stop stop-color="#1492E7"/>
<stop offset="1" stop-color="#DBEDFB"/>
</linearGradient>
<linearGradient id="paint4_linear_112_108" x1="103.728" y1="128.739" x2="103.728" y2="119.808" gradientUnits="userSpaceOnUse">
<stop stop-color="#1492E7"/>
<stop offset="1" stop-color="#DBEDFB"/>
</linearGradient>
<linearGradient id="paint5_linear_112_108" x1="97.7636" y1="128.739" x2="97.7636" y2="119.808" gradientUnits="userSpaceOnUse">
<stop stop-color="#1492E7"/>
<stop offset="1" stop-color="#DBEDFB"/>
</linearGradient>
<linearGradient id="paint6_linear_112_108" x1="91.7979" y1="128.739" x2="91.7979" y2="119.808" gradientUnits="userSpaceOnUse">
<stop stop-color="#1492E7"/>
<stop offset="1" stop-color="#DBEDFB"/>
</linearGradient>
<linearGradient id="paint7_linear_112_108" x1="85.8322" y1="128.739" x2="85.8322" y2="119.808" gradientUnits="userSpaceOnUse">
<stop stop-color="#1492E7"/>
<stop offset="1" stop-color="#DBEDFB"/>
</linearGradient>
<linearGradient id="paint8_linear_112_108" x1="79.722" y1="128.739" x2="79.722" y2="119.808" gradientUnits="userSpaceOnUse">
<stop stop-color="#1492E7"/>
<stop offset="1" stop-color="#DBEDFB"/>
</linearGradient>
<linearGradient id="paint9_linear_112_108" x1="73.7564" y1="128.739" x2="73.7564" y2="119.808" gradientUnits="userSpaceOnUse">
<stop stop-color="#1492E7"/>
<stop offset="1" stop-color="#DBEDFB"/>
</linearGradient>
<linearGradient id="paint10_linear_112_108" x1="121.199" y1="146.147" x2="121.199" y2="72.6098" gradientUnits="userSpaceOnUse">
<stop stop-color="#1285E7"/>
<stop offset="1" stop-color="#00B5EF"/>
</linearGradient>
<linearGradient id="paint11_linear_112_108" x1="137.781" y1="145.822" x2="97.9455" y2="76.784" gradientUnits="userSpaceOnUse">
<stop stop-color="#2B90E7"/>
<stop offset="1" stop-color="#00B6EF"/>
</linearGradient>
<linearGradient id="paint12_linear_112_108" x1="139.703" y1="146.239" x2="98.5461" y2="74.9129" gradientUnits="userSpaceOnUse">
<stop stop-color="#3795EA"/>
<stop offset="1" stop-color="#49C4F2"/>
</linearGradient>
<linearGradient id="paint13_linear_112_108" x1="142.035" y1="145.532" x2="100.325" y2="73.2464" gradientUnits="userSpaceOnUse">
<stop stop-color="#3696EA"/>
<stop offset="1" stop-color="#90D9F6"/>
</linearGradient>
<linearGradient id="paint14_linear_112_108" x1="143.894" y1="143.858" x2="102.705" y2="72.4756" gradientUnits="userSpaceOnUse">
<stop stop-color="#3097EA"/>
<stop offset="1" stop-color="#B5E5F9"/>
</linearGradient>
<linearGradient id="paint15_linear_112_108" x1="144.492" y1="141.893" x2="104.705" y2="72.9407" gradientUnits="userSpaceOnUse">
<stop stop-color="#3A98EA"/>
<stop offset="1" stop-color="#BCE7FA"/>
</linearGradient>
<linearGradient id="paint16_linear_112_108" x1="114.512" y1="106.729" x2="122.244" y2="102.262" gradientUnits="userSpaceOnUse">
<stop stop-color="#00A4EC"/>
<stop offset="1" stop-color="#B9DFF6"/>
</linearGradient>
<linearGradient id="paint17_linear_112_108" x1="111.533" y1="101.572" x2="119.264" y2="97.1052" gradientUnits="userSpaceOnUse">
<stop stop-color="#00A4EC"/>
<stop offset="1" stop-color="#B9DFF6"/>
</linearGradient>
<linearGradient id="paint18_linear_112_108" x1="102.507" y1="85.951" x2="110.19" y2="81.514" gradientUnits="userSpaceOnUse">
<stop stop-color="#00B4EF"/>
<stop offset="1" stop-color="#C3E9FA"/>
</linearGradient>
<linearGradient id="paint19_linear_112_108" x1="99.5145" y1="80.7684" x2="107.247" y2="76.3015" gradientUnits="userSpaceOnUse">
<stop stop-color="#00B4EF"/>
<stop offset="1" stop-color="#C3E9FA"/>
</linearGradient>
<linearGradient id="paint20_linear_112_108" x1="98.4897" y1="146.327" x2="98.4897" y2="72.7913" gradientUnits="userSpaceOnUse">
<stop stop-color="#1285E7"/>
<stop offset="1" stop-color="#00B5EF"/>
</linearGradient>
<linearGradient id="paint21_linear_112_108" x1="81.9064" y1="146.005" x2="121.742" y2="76.969" gradientUnits="userSpaceOnUse">
<stop stop-color="#3194E9"/>
<stop offset="1" stop-color="#71CFF4"/>
</linearGradient>
<linearGradient id="paint22_linear_112_108" x1="79.974" y1="146.424" x2="121.135" y2="75.0885" gradientUnits="userSpaceOnUse">
<stop stop-color="#5AA6EC"/>
<stop offset="1" stop-color="#A2DEF8"/>
</linearGradient>
<linearGradient id="paint23_linear_112_108" x1="77.6511" y1="145.712" x2="119.361" y2="73.4255" gradientUnits="userSpaceOnUse">
<stop stop-color="#66ABEE"/>
<stop offset="1" stop-color="#BEE8FA"/>
</linearGradient>
<linearGradient id="paint24_linear_112_108" x1="75.7999" y1="144.037" x2="116.988" y2="72.6547" gradientUnits="userSpaceOnUse">
<stop stop-color="#7BB6F0"/>
<stop offset="1" stop-color="#B1E3F9"/>
</linearGradient>
<linearGradient id="paint25_linear_112_108" x1="75.1883" y1="142.115" x2="114.995" y2="73.1267" gradientUnits="userSpaceOnUse">
<stop stop-color="#5AA6EC"/>
<stop offset="1" stop-color="#AFE3F9"/>
</linearGradient>
<linearGradient id="paint26_linear_112_108" x1="112.578" y1="76.2469" x2="120.31" y2="80.7138" gradientUnits="userSpaceOnUse">
<stop stop-color="#C1E7FA"/>
<stop offset="1" stop-color="#89D4F5"/>
</linearGradient>
<linearGradient id="paint27_linear_112_108" x1="109.585" y1="81.4284" x2="117.317" y2="85.8941" gradientUnits="userSpaceOnUse">
<stop stop-color="#C1E7FA"/>
<stop offset="1" stop-color="#89D4F5"/>
</linearGradient>
<linearGradient id="paint28_linear_112_108" x1="106.5" y1="86.7699" x2="114.231" y2="91.2356" gradientUnits="userSpaceOnUse">
<stop stop-color="#C1E7FA"/>
<stop offset="1" stop-color="#89D4F5"/>
</linearGradient>
<linearGradient id="paint29_linear_112_108" x1="103.5" y1="91.9622" x2="111.231" y2="96.4291" gradientUnits="userSpaceOnUse">
<stop stop-color="#B0DFF8"/>
<stop offset="1" stop-color="#52BDF2"/>
</linearGradient>
<linearGradient id="paint30_linear_112_108" x1="100.501" y1="97.1533" x2="108.234" y2="101.62" gradientUnits="userSpaceOnUse">
<stop stop-color="#B4DEF8"/>
<stop offset="1" stop-color="#4EB5F0"/>
</linearGradient>
<linearGradient id="paint31_linear_112_108" x1="97.5032" y1="102.344" x2="105.234" y2="106.81" gradientUnits="userSpaceOnUse">
<stop stop-color="#B4DEF8"/>
<stop offset="1" stop-color="#4EB5F0"/>
</linearGradient>
<linearGradient id="paint32_linear_112_108" x1="94.5162" y1="107.516" x2="102.246" y2="111.982" gradientUnits="userSpaceOnUse">
<stop stop-color="#B5DDF8"/>
<stop offset="1" stop-color="#46AEEE"/>
</linearGradient>
<linearGradient id="paint33_linear_112_108" x1="91.5256" y1="112.69" x2="99.2579" y2="117.157" gradientUnits="userSpaceOnUse">
<stop stop-color="#96CEF4"/>
<stop offset="1" stop-color="#46AAEE"/>
</linearGradient>
<linearGradient id="paint34_linear_112_108" x1="84.3405" y1="129.299" x2="90.2651" y2="132.722" gradientUnits="userSpaceOnUse">
<stop stop-color="#8FC1F2"/>
<stop offset="1" stop-color="#3193EA"/>
</linearGradient>
<linearGradient id="paint35_linear_112_108" x1="79.4617" y1="133.575" x2="87.1939" y2="138.042" gradientUnits="userSpaceOnUse">
<stop stop-color="#8FC1F2"/>
<stop offset="1" stop-color="#3193EA"/>
</linearGradient>
<linearGradient id="paint36_linear_112_108" x1="76.4639" y1="138.762" x2="84.195" y2="143.229" gradientUnits="userSpaceOnUse">
<stop stop-color="#8FC1F2"/>
<stop offset="1" stop-color="#3193EA"/>
</linearGradient>
<linearGradient id="paint37_linear_112_108" x1="124.951" y1="111.154" x2="139.826" y2="118.412" gradientUnits="userSpaceOnUse">
<stop offset="0.001"/>
<stop offset="1" stop-opacity="0"/>
</linearGradient>
<radialGradient id="paint38_radial_112_108" cx="0" cy="0" r="1" gradientTransform="matrix(-8.68487 17.2534 -29.8714 -15.0206 147.068 63.6432)" gradientUnits="userSpaceOnUse">
<stop/>
<stop offset="1" stop-opacity="0"/>
</radialGradient>
<radialGradient id="paint39_radial_112_108" cx="0" cy="0" r="1" gradientTransform="matrix(8.47296 4.15148 -2.36477 4.82014 94.4782 170.864)" gradientUnits="userSpaceOnUse">
<stop offset="0.417" stop-color="#0C0C12"/>
<stop offset="1" stop-color="#3D4651"/>
</radialGradient>
<linearGradient id="paint40_linear_112_108" x1="134.549" y1="80.4066" x2="146.208" y2="86.3505" gradientUnits="userSpaceOnUse">
<stop stop-color="#344351"/>
<stop offset="0.1" stop-color="#9697A0"/>
<stop offset="0.181" stop-color="#8B8C95"/>
<stop offset="0.351" stop-color="#787A83"/>
<stop offset="0.47" stop-color="#71747D"/>
<stop offset="0.591" stop-color="#777982"/>
<stop offset="0.749" stop-color="#87898F"/>
<stop offset="0.8" stop-color="#8E8F94"/>
<stop offset="0.849" stop-color="#3D3B42"/>
<stop offset="0.9" stop-color="#606E84"/>
</linearGradient>
<linearGradient id="paint41_linear_112_108" x1="174.112" y1="68.5694" x2="160.96" y2="50.7853" gradientUnits="userSpaceOnUse">
<stop offset="0.27" stop-color="#262B33"/>
<stop offset="0.45" stop-color="#74747E"/>
<stop offset="0.54" stop-color="#B0B0BC"/>
<stop offset="0.73" stop-color="#74747E"/>
</linearGradient>
<linearGradient id="paint42_linear_112_108" x1="151.012" y1="69.9624" x2="170.447" y2="67.4505" gradientUnits="userSpaceOnUse">
<stop offset="0.14" stop-color="#606E84"/>
<stop offset="0.4" stop-color="#9899A5"/>
<stop offset="0.73" stop-color="#475768"/>
<stop offset="0.92" stop-color="#262B33"/>
</linearGradient>
<linearGradient id="paint43_linear_112_108" x1="160.072" y1="71.6143" x2="158.188" y2="60.9262" gradientUnits="userSpaceOnUse">
<stop stop-color="#101215" stop-opacity="0.1"/>
<stop offset="0.46" stop-color="#101215" stop-opacity="0.7"/>
<stop offset="0.7" stop-color="#474951"/>
<stop offset="0.91" stop-color="#7B7D88"/>
</linearGradient>
<linearGradient id="paint44_linear_112_108" x1="102.748" y1="131.192" x2="120.785" y2="140.073" gradientUnits="userSpaceOnUse">
<stop offset="0.115" stop-color="#2C3952"/>
<stop offset="0.374" stop-color="#3D414E"/>
<stop offset="0.55" stop-color="#474A54"/>
<stop offset="0.754" stop-color="#4E5057"/>
<stop offset="0.892" stop-color="#323945"/>
<stop offset="1" stop-color="#143052"/>
</linearGradient>
<linearGradient id="paint45_linear_112_108" x1="130.667" y1="71.4603" x2="144.606" y2="40.8589" gradientUnits="userSpaceOnUse">
<stop offset="0.118" stop-color="#6D7078" stop-opacity="0"/>
<stop offset="0.2" stop-color="#6D7078" stop-opacity="0.7"/>
<stop offset="0.34" stop-color="#35363A"/>
<stop offset="0.374" stop-color="#1D1F22"/>
<stop offset="0.4" stop-color="#101215"/>
<stop offset="0.5" stop-color="#16171A"/>
<stop offset="0.56" stop-color="#292A2E"/>
<stop offset="0.688" stop-color="#4B4D51"/>
<stop offset="0.807" stop-color="#63666B"/>
<stop offset="0.915" stop-color="#72757B"/>
<stop offset="1" stop-color="#777A80"/>
</linearGradient>
<linearGradient id="paint46_linear_112_108" x1="115.805" y1="53.7444" x2="142.035" y2="53.7444" gradientUnits="userSpaceOnUse">
<stop stop-color="#4A4D56"/>
<stop offset="1" stop-color="#29292D"/>
</linearGradient>
<linearGradient id="paint47_linear_112_108" x1="115.805" y1="47.6092" x2="138.486" y2="47.6092" gradientUnits="userSpaceOnUse">
<stop stop-color="#767880"/>
<stop offset="0.41" stop-color="#0C0A0B"/>
</linearGradient>
<linearGradient id="paint48_linear_112_108" x1="172.259" y1="75.1332" x2="181.059" y2="59.8812" gradientUnits="userSpaceOnUse">
<stop stop-color="#858997"/>
<stop offset="0.23" stop-color="#244668"/>
<stop offset="0.282" stop-color="#1A3249"/>
<stop offset="0.4" stop-color="#040506"/>
<stop offset="0.464" stop-color="#313236"/>
<stop offset="0.546" stop-color="#65656E"/>
<stop offset="0.607" stop-color="#868691"/>
<stop offset="0.64" stop-color="#92929E"/>
</linearGradient>
</defs>
</svg>
